<svg xmlns="http://www.w3.org/2000/svg" viewBox="0 0 576 512"><!--! Font Awesome Free 6.0.0-beta2 by @fontawesome - https://fontawesome.com License - https://fontawesome.com/license/free (Icons: CC BY 4.0, Fonts: SIL OFL 1.1, Code: MIT License) --><path d="M358.1 143.5L243.6 195.8c-5.957 2.723-13.06 9.824-15.78 15.78l-52.33 114.5c-12.32 26.95 15.45 54.72 42.4 42.41l114.5-52.32c5.939-2.715 13.03-9.817 15.75-15.76l52.34-114.5C412.8 158.1 385 131.2 358.1 143.5zM310.6 278.6c-12.5 12.5-32.75 12.5-45.25 0c-12.5-12.5-12.5-32.75 0-45.25c12.5-12.5 32.75-12.5 45.25 0C323.1 245.9 323.1 266.1 310.6 278.6zM288 0C146.6 0 32 114.6 32 256s114.6 256 256 256s256-114.6 256-256S429.4 0 288 0zM288 464c-114.7 0-208-93.31-208-208S173.3 48 288 48s208 93.31 208 208S402.7 464 288 464z"/></svg>