<svg xmlns="http://www.w3.org/2000/svg" viewBox="0 0 512 512"><!--! Font Awesome Free 6.0.0-beta2 by @fontawesome - https://fontawesome.com License - https://fontawesome.com/license/free (Icons: CC BY 4.0, Fonts: SIL OFL 1.1, Code: MIT License) --><path d="M175.1 176c-17.68 0-31.97 14.25-31.97 32s14.29 32 31.97 32c17.8 0 32.09-14.25 32.09-32S193.8 176 175.1 176zM256 0C114.6 0 0 114.6 0 256c0 140.6 113.3 254.6 253.6 255.9c.3672 .0098 .707 .1113 1.074 .1172c.1484 0 .2656-.0163 .4141-.0163C255.4 511.1 255.8 512 256.1 512C397.5 512 512 397.4 512 256S397.4 0 256 0zM320.1 416c0 35.63-29.18 64.5-64.91 64c-35.12-.5-63.21-29.75-63.21-65v-50.75l17.8-8.875c15.02-7.5 31.48 1.75 34.88 16.5l2.785 12.12c2.059 9.25 15.26 9.25 17.32 0l2.785-12.12c3.391-14.75 19.74-24.12 34.88-16.5l17.68 8.875V416zM351.9 440.4l.1602-75.92c14.15-12.37 24.31-27.48 27.21-44.47c1.695-9.875-7.629-18.5-17.68-15.25C335.7 313 297.2 317.8 256 317.8s-79.56-4.75-105.6-13C140.5 301.6 131 310 132.7 320c2.904 16.99 13.07 32.1 27.21 44.47l.1699 75.92C93.58 405.7 48 336.1 48 256c0-114.7 93.31-208 208-208s208 93.31 208 208C464 336.1 418.4 405.6 351.9 440.4zM336 176c-17.8 0-32.09 14.25-32.09 32s14.29 32 32.09 32c17.68 0 31.97-14.25 31.97-32S353.7 176 336 176z"/></svg>