<svg xmlns="http://www.w3.org/2000/svg" viewBox="0 0 512 512"><!--! Font Awesome Free 6.0.0-beta2 by @fontawesome - https://fontawesome.com License - https://fontawesome.com/license/free (Icons: CC BY 4.0, Fonts: SIL OFL 1.1, Code: MIT License) --><path d="M133.7 247.1C132.7 253.3 139.1 258.1 144.7 255l31.24-16.25L207.3 255C212.9 258.1 219.3 253.3 218.3 247.1l-6.055-34.88l25.43-24.62c4.48-4.5 1.938-12.25-4.359-13.25l-34.88-5l-15.5-31.62C180.1 132 171.1 132 169.1 137.8L153.6 169.4l-34.88 5C112.5 175.3 109.8 183 114.4 187.6l25.31 24.62L133.7 247.1zM361.6 304.6C335.7 312.9 297.2 317.8 256 317.8S176.4 312.9 150.4 304.6C140.6 301.5 131 309.9 132.7 319.9C140.6 367.1 204.1 399.9 256 399.9s115.3-32.94 123.3-80.06C380.8 310.1 371.6 301.5 361.6 304.6zM393.4 174.4l-34.1-5l-15.5-31.62c-2.785-5.75-10.9-5.75-13.8 0l-15.5 31.62l-34.1 5c-6.176 .875-8.84 8.625-4.238 13.25l25.43 24.62l-6.055 34.88c-.9687 6.125 5.449 11 11.02 7.875l31.24-16.25L367.4 255c5.57 3.125 11.99-1.75 11.02-7.875l-6.055-34.88l25.43-24.62C402.3 183 399.6 175.4 393.4 174.4zM256 0C114.6 0 0 114.6 0 256s114.6 256 256 256s256-114.6 256-256S397.4 0 256 0zM256 464c-114.7 0-208-93.31-208-208S141.3 48 256 48s208 93.31 208 208S370.7 464 256 464z"/></svg>