<svg xmlns="http://www.w3.org/2000/svg" viewBox="0 0 512 512"><!--! Font Awesome Free 6.0.0-beta2 by @fontawesome - https://fontawesome.com License - https://fontawesome.com/license/free (Icons: CC BY 4.0, Fonts: SIL OFL 1.1, Code: MIT License) --><path d="M142.2 254.3l80.04-48c7.75-4.625 7.75-15.88 0-20.5l-80.04-48c-11.62-7-23.98 7.625-15.38 18L160.5 196l-33.66 40.25C118.1 246.8 130.5 261.1 142.2 254.3zM370.4 288H141.6c-8.113 0-14.41 7-13.44 15C135.6 362.3 186.1 408 249.2 408h13.56c62.24 0 113.6-45.75 121.1-105C384.8 295 378.5 288 370.4 288zM369.8 137.8l-80.04 48c-7.75 4.625-7.75 15.88 0 20.5l80.04 48c11.5 6.875 23.98-7.5 15.38-18L351.5 196l33.66-40.25C393.8 145.4 381.5 130.9 369.8 137.8zM256 0C114.6 0 0 114.6 0 256s114.6 256 256 256s256-114.6 256-256S397.4 0 256 0zM256 464c-114.7 0-208-93.31-208-208S141.3 48 256 48s208 93.31 208 208S370.7 464 256 464z"/></svg>