<svg xmlns="http://www.w3.org/2000/svg" viewBox="0 0 512 512"><!--! Font Awesome Free 6.0.0-beta2 by @fontawesome - https://fontawesome.com License - https://fontawesome.com/license/free (Icons: CC BY 4.0, Fonts: SIL OFL 1.1, Code: MIT License) --><path d="M144.5 210.9C152.2 197.3 163.7 189.3 175.1 189.3c12.35 0 23.86 8 31.48 21.62l9.566 17c4.117 7.375 15.62 4 14.89-4.5C228.6 181.3 199.7 152 175.1 152c-23.86 0-52.82 29.25-56.09 71.38c-.6055 8.5 10.9 11.88 15.14 4.5L144.5 210.9zM370.4 288H141.6c-8.113 0-14.41 7-13.44 15C135.6 362.3 186.1 408 249.2 408h13.56c62.24 0 113.6-45.75 121.1-105C384.8 295 378.5 288 370.4 288zM336 152c-23.86 0-52.78 29.25-56.04 71.38C279.3 232 290.8 235.3 294.9 227.9l9.566-17c7.629-13.62 19.13-21.62 31.48-21.62c12.23 0 23.73 8 31.48 21.62l9.445 17c4.117 7.375 15.62 4 14.89-4.5C388.7 181.3 359.8 152 336 152zM256 0C114.6 0 0 114.6 0 256s114.6 256 256 256s256-114.6 256-256S397.4 0 256 0zM256 464c-114.7 0-208-93.31-208-208S141.3 48 256 48s208 93.31 208 208S370.7 464 256 464z"/></svg>