<svg xmlns="http://www.w3.org/2000/svg" viewBox="0 0 512 512"><!--! Font Awesome Free 6.0.0-beta2 by @fontawesome - https://fontawesome.com License - https://fontawesome.com/license/free (Icons: CC BY 4.0, Fonts: SIL OFL 1.1, Code: MIT License) --><path d="M144.5 210.9c7.75-13.75 19.25-21.62 31.48-21.62c12.35 0 23.86 7.875 31.48 21.62l9.566 17C219.1 231.7 223.2 232.8 226.3 231.8c3.512-1.125 5.934-4.5 5.691-8.375C228.8 181.3 199.8 152 175.1 152c-23.73 0-52.54 29.25-55.81 71.38C119.8 227.1 122.1 230.6 125.7 231.8c3.512 1 7.459-.575 9.397-3.825L144.5 210.9zM361.6 304.6C335.7 312.9 297.2 317.8 256 317.8S176.4 312.9 150.4 304.6C140.6 301.5 131 309.9 132.7 319.9c7.871 47.13 71.32 80 123.3 80s115.3-32.88 123.3-80C380.8 310.1 371.6 301.5 361.6 304.6zM336 152c-23.86 0-52.64 29.25-55.91 71.38c-.2422 3.75 2.034 7.25 5.546 8.375c3.512 1 7.459-.575 9.397-3.825l9.494-17c7.629-13.75 19.13-21.62 31.48-21.62c12.23 0 23.81 7.875 31.56 21.62l9.445 17c2.18 3.75 6.103 4.825 9.252 3.825c3.633-1.125 6.055-4.5 5.691-8.375C388.7 181.3 359.8 152 336 152zM256 0C114.6 0 0 114.6 0 256s114.6 256 256 256s256-114.6 256-256S397.4 0 256 0zM256 464c-114.7 0-208-93.31-208-208S141.3 48 256 48s208 93.31 208 208S370.7 464 256 464z"/></svg>