<svg xmlns="http://www.w3.org/2000/svg" viewBox="0 0 512 512"><!--! Font Awesome Free 6.0.0-beta2 by @fontawesome - https://fontawesome.com License - https://fontawesome.com/license/free (Icons: CC BY 4.0, Fonts: SIL OFL 1.1, Code: MIT License) --><path d="M361.6 304.6C335.7 312.9 297.2 317.8 256 317.8S176.4 312.9 150.4 304.6C140.5 301.5 131 310 132.7 319.9c7.871 47.13 71.32 80 123.3 80s115.3-32.88 123.3-80C380.8 310.1 371.6 301.5 361.6 304.6zM142.2 266.3l80.04-48C225.8 216.1 228 212.3 228 208S225.8 199.9 222.2 197.8l-80.04-48c-5.086-3-11.38-2-15.26 2.5c-3.754 4.5-3.754 11-.121 15.5L160.5 208l-33.66 40.25c-3.754 4.5-3.633 11.12 .121 15.5C130.5 268 136.8 269.5 142.2 266.3zM385.1 152.3c-3.754-4.5-10.17-5.5-15.26-2.5l-80.04 48C286.2 199.9 283.1 203.8 283.1 208s2.18 8.125 5.813 10.25l80.04 48C375.2 269.5 381.5 268 385.1 263.8c3.754-4.5 3.754-11 .1212-15.5L351.5 208l33.66-40.25C388.1 163.3 388.8 156.8 385.1 152.3zM256 0C114.6 0 0 114.6 0 256s114.6 256 256 256s256-114.6 256-256S397.4 0 256 0zM256 464c-114.7 0-208-93.31-208-208S141.3 48 256 48s208 93.31 208 208S370.7 464 256 464z"/></svg>