<svg xmlns="http://www.w3.org/2000/svg" viewBox="0 0 512 512"><!--! Font Awesome Free 6.0.0-beta2 by @fontawesome - https://fontawesome.com License - https://fontawesome.com/license/free (Icons: CC BY 4.0, Fonts: SIL OFL 1.1, Code: MIT License) --><path d="M256 272c-30.88 0-55.95 28.75-55.95 64s25.07 64 55.95 64s55.95-28.75 55.95-64S286.9 272 256 272zM352.1 180.1c-25.67 0-56.04 16.88-59.91 42.13c-.8477 5 1.695 10 6.055 12.38c4.48 2.375 9.93 1.75 13.68-1.625l9.657-8.594c14.77-13.12 46.05-13.12 60.94 0l9.536 8.5c2.543 2.25 7.992 4.75 13.68 1.625c4.48-2.375 6.902-7.281 6.176-12.28C407.9 196.1 377.8 180.1 352.1 180.1zM213.9 234.6c4.359-2.375 6.872-7.375 6.146-12.38c-3.996-25.25-34.36-42.13-59.91-42.13S104.1 196.1 100.2 222.2c-.7266 5 1.695 10 6.176 12.38c4.359 2.375 9.809 1.75 13.68-1.625l9.445-8.5c14.77-13.12 46.26-13.12 61.03 0l9.627 8.5C202.7 235.3 208 237.8 213.9 234.6zM256 0C114.8 0 0 114.8 0 256s114.8 256 256 256s256-114.8 256-256S397.2 0 256 0zM399.1 405.8V280c0-13.25-10.78-24-23.98-24s-23.99 10.75-23.99 24v160.3C323.3 455.4 290.6 464 256 464c-34.65 0-67.28-8.637-96.04-23.69L159.1 280c0-13.25-10.79-24-23.99-24S112 266.8 112 280l-.0137 125.7C72.64 367.9 48 314.8 48 256c0-114.7 93.31-208 208-208s208 93.31 208 208C464 314.8 439.4 367.9 399.1 405.8z"/></svg>