<svg xmlns="http://www.w3.org/2000/svg" viewBox="0 0 640 512"><!--! Font Awesome Free 6.0.0-beta2 by @fontawesome - https://fontawesome.com License - https://fontawesome.com/license/free (Icons: CC BY 4.0, Fonts: SIL OFL 1.1, Code: MIT License) --><path d="M456 223.4C452.8 181.3 423.8 152 400 152c-23.75 0-52.66 29.25-55.91 71.38c-.25 3.75 2.077 7.25 5.702 8.375c3.5 1 7.364-.575 9.239-3.825l9.481-17c7.75-13.75 19.24-21.62 31.49-21.62c12.25 0 23.81 7.875 31.56 21.62l9.457 17c2.125 3.625 6.236 4.7 9.237 3.825C453.9 230.6 456.3 227.3 456 223.4zM240 189.3c12.25 0 23.74 7.875 31.49 21.62l9.554 17C283.2 231.7 287.2 232.8 290.2 231.8c3.627-1.125 6.098-4.5 5.848-8.375C292.8 181.3 263.7 152 239.1 152c-23.75 0-52.57 29.25-55.82 71.38C183.9 227.1 186.1 230.6 189.7 231.8c3.5 1 7.51-.575 9.385-3.825l9.457-17C216.3 197.2 227.8 189.3 240 189.3zM319.1 400c51.88 0 115.3-32.88 123.3-80c1.75-9.875-7.625-18.5-17.63-15.25c-25.88 8.25-64.38 13-105.6 13S240.4 313 214.4 304.8C204.6 301.6 194.1 310 196.7 320C204.7 367.1 268.1 400 319.1 400zM623.8 286.8c-16.88-17-75.01-27-100.9-30.62c-6.252-.875-11.63 4.5-10.75 10.75c3.625 25.88 13.63 84 30.63 100.9c21.88 22 57.88 21.5 80.26-.875C645.3 344.6 645.8 308.6 623.8 286.8zM117.1 256.1c-25.88 3.625-84.01 13.62-100.9 30.62c-22 21.88-21.5 57.88 .875 80.25s58.26 22.75 80.26 .875C114.2 351 124.2 292.8 127.1 267C128.7 260.6 123.3 255.3 117.1 256.1zM114.7 224.2C130.1 124.6 216.2 48 320 48c103.9 0 189.9 76.59 205.3 176.2l2.004 .2285c18.93 2.648 34.16 5.637 47.53 8.713C563.3 102.5 453.7 0 320 0C186.3 0 76.73 102.5 65.15 233.1c13.36-3.074 28.58-6.059 47.5-8.707L114.7 224.2zM500.9 358.3C465.1 421.3 397.5 464 320 464c-77.53 0-145.2-42.71-180.9-105.8c-8.195 20.89-15.6 28.76-19.1 32.26c-3.596 3.572-7.549 6.629-11.61 9.486C154.4 467.6 232 512 320 512c88.02 0 165.6-44.45 211.7-112.1c-4.074-2.883-8.029-5.977-11.62-9.584C516.6 386.9 509.1 378.1 500.9 358.3z"/></svg>