<svg xmlns="http://www.w3.org/2000/svg" viewBox="0 0 512 512"><!--! Font Awesome Free 6.0.0-beta2 by @fontawesome - https://fontawesome.com License - https://fontawesome.com/license/free (Icons: CC BY 4.0, Fonts: SIL OFL 1.1, Code: MIT License) --><path d="M352 152c-39.79 0-72.05 32.17-72.05 72c0 39.82 32.26 72 72.05 72c39.79 0 71.93-32.18 71.93-72C423.1 184.2 391.8 152 352 152zM352.1 264C329.1 264 312 246.1 312 224c0-22.06 17.97-40 40.05-40C374.1 184 392 201.9 392 224C392 246.1 374.1 264 352.1 264zM159.1 200c-13.33 0-23.98 10.75-23.98 24s10.65 24 23.98 24S183.1 237.3 183.1 224S173.3 200 159.1 200zM231.1 224c0-39.83-32.23-72-72.02-72c-39.79 0-71.97 32.17-71.97 72c0 39.82 32.18 72 71.97 72C199.8 296 231.1 263.8 231.1 224zM160.1 264C137.1 264 120 246.1 120 224c0-22.06 17.97-40 40.05-40C182.1 184 200 201.9 200 224C200 246.1 182.1 264 160.1 264zM312 335.1H199.1c-13.2 0-23.98 10.75-23.98 24s10.78 24 23.98 24h112.1c13.2 0 23.98-10.75 23.98-24S325.2 335.1 312 335.1zM352 200c-13.33 0-23.98 10.75-23.98 24s10.65 24 23.98 24S375.1 237.3 375.1 224S365.3 200 352 200zM256 0C114.6 0 0 114.6 0 256s114.6 256 256 256s256-114.6 256-256S397.4 0 256 0zM256 464c-114.7 0-208-93.31-208-208S141.3 48 256 48s208 93.31 208 208S370.7 464 256 464z"/></svg>