<svg xmlns="http://www.w3.org/2000/svg" viewBox="0 0 512 512"><!--! Font Awesome Free 6.0.0-beta2 by @fontawesome - https://fontawesome.com License - https://fontawesome.com/license/free (Icons: CC BY 4.0, Fonts: SIL OFL 1.1, Code: MIT License) --><path d="M366.4 224.5l9.566 8.5c8.477 7.375 21.55 .25 19.86-10.88C391.9 196.9 361.7 180 336 180c-25.79 0-55.95 16.88-59.94 42.13c-1.695 11.25 11.5 18.25 19.86 10.88l9.566-8.5C320.3 211.3 351.7 211.3 366.4 224.5zM342.2 445.1C315.9 457.1 286.8 464 256 464c-114.7 0-208-93.31-208-208S141.3 48 256 48s208 93.31 208 208c0 24.24-4.385 47.43-12.04 69.08c5.838 5.277 11.15 11.15 15.21 18.06c9.578 .0332 18.64 2.279 27.27 5.51C505.6 319.9 512 288.7 512 256c0-141.4-114.6-256-256-256S0 114.6 0 256s114.6 256 256 256c35.92 0 70.07-7.461 101.1-20.81c-1.721-2.883-3.465-5.766-4.494-9.094L342.2 445.1zM253.9 401.8L236.1 409c-3.633 1.5-5.57 5.375-4.723 9.25c.8477 3.5 4.117 6.125 7.871 6.125h.4844c42.75-2.5 71.45-24.75 71.45-44c0-13-13.32-27.25-35.12-36C298.6 335.3 311.9 321 311.9 308c0-19.25-28.7-41.5-71.45-44C236.7 263.6 233.1 266.4 232.3 270.3C231.4 274 233.4 277.9 236.1 279.4l16.95 7.25c12.96 5.5 20.71 13.5 20.71 21.5s-7.75 16-20.71 21.5l-16.95 7.125c-5.691 2.5-5.934 12.25 0 14.88l16.95 7.125c12.96 5.5 20.71 13.5 20.71 21.5S266.9 396.3 253.9 401.8zM143.1 208c0 17.75 14.28 32 31.96 32c17.8 0 32.09-14.25 32.09-32s-14.29-32-32.09-32C158.3 176 143.1 190.3 143.1 208zM455.2 376.6l-8.5 2.125l-2.375-8.375c-6-21.38-27.38-36.5-49.75-33c-25.62 4-41.25 28.62-34.63 52.63l23.25 82.63c1.625 5.25 7.125 8.5 12.62 7.125l84.38-21.5c24.5-6.375 38.25-31.88 28.88-55.75C500.9 381.8 477 371 455.2 376.6z"/></svg>