<svg xmlns="http://www.w3.org/2000/svg" viewBox="0 0 512 512"><!--! Font Awesome Free 6.0.0-beta2 by @fontawesome - https://fontawesome.com License - https://fontawesome.com/license/free (Icons: CC BY 4.0, Fonts: SIL OFL 1.1, Code: MIT License) --><path d="M240 224c0-39.75-32.21-72-72.05-72C128.2 152 96.03 184.3 96.03 224s32.22 72 71.94 72C207.8 296 240 263.8 240 224zM128 224c0-13.62 7.266-25.12 17.68-32.25C144.7 194.3 143.1 197 143.1 200c0 13.25 10.66 24 23.98 24s23.98-10.75 23.98-24c0-2.875-.6055-5.75-1.695-8.25C200.7 198.9 208 210.4 208 224c0 22.12-17.9 40-40.06 40C145.9 264 128 246.1 128 224zM344 152c-39.84 0-72.05 32.25-72.05 72s32.21 72 72.05 72c39.72 0 71.94-32.25 71.94-72S383.8 152 344 152zM344 264c-22.16 0-40.06-17.88-40.06-40c0-13.62 7.363-25.12 17.78-32.25C320.7 194.3 320.1 197 320.1 200c0 13.25 10.66 24 23.98 24s23.98-10.75 23.98-24c0-2.875-.7266-5.75-1.695-8.25C376.7 198.9 383.1 210.4 383.1 224C383.1 246.1 366.1 264 344 264zM320.1 352H191.9c-13.2 0-23.98 10.75-23.98 24s10.78 24 23.98 24h128.1c13.2 0 23.98-10.75 23.98-24S333.3 352 320.1 352zM256 0C114.6 0 0 114.6 0 256s114.6 256 256 256s256-114.6 256-256S397.4 0 256 0zM256 464c-114.7 0-208-93.31-208-208S141.3 48 256 48s208 93.31 208 208S370.7 464 256 464z"/></svg>