<svg xmlns="http://www.w3.org/2000/svg" viewBox="0 0 512 512"><!--! Font Awesome Free 6.0.0-beta2 by @fontawesome - https://fontawesome.com License - https://fontawesome.com/license/free (Icons: CC BY 4.0, Fonts: SIL OFL 1.1, Code: MIT License) --><path d="M344 320H167.1c-13.2 0-23.98 10.75-23.98 24s10.78 24 23.98 24h176.1c13.2 0 23.98-10.75 23.98-24S357.2 320 344 320zM175.1 240c17.8 0 32.02-14.25 32.02-32s-14.22-32-32.02-32c-17.68 0-31.99 14.25-31.99 32S158.3 240 175.1 240zM336 176c-17.8 0-32.02 14.25-32.02 32s14.22 32 32.02 32c17.68 0 31.99-14.25 31.99-32S353.7 176 336 176zM256 0C114.6 0 0 114.6 0 256s114.6 256 256 256s256-114.6 256-256S397.4 0 256 0zM256 464c-114.7 0-208-93.31-208-208S141.3 48 256 48s208 93.31 208 208S370.7 464 256 464z"/></svg>