<svg xmlns="http://www.w3.org/2000/svg" viewBox="0 0 512 512"><!--! Font Awesome Free 6.0.0-beta2 by @fontawesome - https://fontawesome.com License - https://fontawesome.com/license/free (Icons: CC BY 4.0, Fonts: SIL OFL 1.1, Code: MIT License) --><path d="M385.1 152.3c-3.754-4.5-10.29-5.5-15.26-2.5l-80.04 48C286.2 199.9 283.1 203.8 283.1 208s2.18 8.125 5.812 10.25l80.04 48C375.2 269.5 381.5 268 385.1 263.8c3.754-4.5 3.754-11 .1211-15.5L351.5 208l33.66-40.25C388.1 163.3 388.8 156.6 385.1 152.3zM256 0C114.6 0 0 114.6 0 256c0 140.6 113.3 254.6 253.6 255.9c.3672 .0098 .707 .1113 1.074 .1172c.1484 0 .2656-.0163 .4141-.0163C255.4 511.1 255.8 512 256.1 512C397.5 512 512 397.4 512 256S397.4 0 256 0zM320.1 416c0 35.63-29.18 64.5-64.91 64c-35.12-.5-63.21-29.75-63.21-65v-50.75l17.8-8.875c15.02-7.5 31.48 1.75 34.88 16.5l2.785 12.12c2.059 9.25 15.26 9.25 17.32 0l2.785-12.12c3.391-14.75 19.74-24.12 34.88-16.5l17.68 8.875V416zM351.9 440.4l.1406-75.91c14.15-12.37 24.31-27.48 27.21-44.47c1.695-9.875-7.629-18.5-17.68-15.25C335.7 313 297.2 317.8 256 317.8s-79.56-4.75-105.6-13C140.5 301.6 131 310 132.7 320c2.904 16.99 13.07 32.1 27.21 44.47l.1504 75.91C93.57 405.6 48 336.1 48 256c0-114.7 93.31-208 208-208s208 93.31 208 208C464 336.1 418.4 405.6 351.9 440.4zM142.2 149.8c-4.965-3-11.38-2-15.26 2.5c-3.754 4.5-3.754 11-.1211 15.5L160.5 208l-33.66 40.25c-3.754 4.5-3.633 11 .1211 15.5C130.5 268 136.8 269.5 142.2 266.3l80.04-48C225.8 216.1 228 212.3 228 208S225.8 199.9 222.2 197.8L142.2 149.8z"/></svg>