<svg xmlns="http://www.w3.org/2000/svg" viewBox="0 0 512 512"><!--! Font Awesome Free 6.0.0-beta2 by @fontawesome - https://fontawesome.com License - https://fontawesome.com/license/free (Icons: CC BY 4.0, Fonts: SIL OFL 1.1, Code: MIT License) --><path d="M364.9 215.8c-12.25 24.25-36.13 54.74-65.26 83.86c-29.13 29.12-59.76 52.87-83.89 65.37c-9.252 4.75-10 17.5-1.752 23.37c38.88 27.75 107 6.248 143.8-30.62c36.63-36.75 58.26-104.7 30.5-143.6C382.5 205.9 369.8 206.5 364.9 215.8zM247.6 211.1l90.52-22.62c5.627-1.373 9.502-6.748 9.127-12.62c-.5-5.748-5.127-10.5-11-10.1l-52.26-4.75l-4.75-52.37c-.5-5.75-5.25-10.37-11-10.87C262.6 96.77 257 100.3 255.6 106L232.1 196.5c-1 4.125 .25 8.373 3.25 11.37C241.2 212.9 247.5 211.1 247.6 211.1zM207.9 236.3c-3-3-7.127-4.25-11.38-3.25L105.1 255.8c-5.75 1.375-9.502 6.623-9.127 12.5c.5 5.873 5.127 10.5 10.88 10.1L160.1 284.1l4.75 52.24c.5 5.875 5.252 10.37 11 10.87h.875c5.502 0 10.38-3.623 11.75-8.998l22.63-90.49C212.1 243.5 210.9 239.3 207.9 236.3zM394.9 127.9c25.88-3.625 84.01-13.62 100.9-30.62c22-21.87 21.5-57.87-.877-80.24c-22.38-22.37-58.26-22.75-80.26-.875c-16.88 16.87-26.88 75.12-30.63 100.9C383.3 123.4 388.6 128.8 394.9 127.9zM75.45 358.9C58.07 328.5 48 293.4 48 256c0-114.7 93.31-208 208-208c37.46 0 72.56 10.1 102.1 27.5c4.295-20.62 8.787-35.96 13.14-47.46C337.2 10.24 297.8 0 256 0C114.6 0 0 114.6 0 256c0 41.79 10.22 81.13 27.98 115.1C39.5 367.6 54.83 363.1 75.45 358.9zM484 140c-11.51 4.391-26.85 8.895-47.46 13.12C453.9 183.5 464 218.6 464 256c0 114.7-93.31 208-208 208c-37.46 0-72.56-10.1-102.1-27.5c-4.295 20.62-8.787 35.96-13.14 47.46C174.8 501.8 214.2 512 256 512c141.4 0 256-114.6 256-256C512 214.2 501.8 174.9 484 140zM117.1 384.1c-25.88 3.625-84.01 13.62-100.9 30.62c-22 21.87-21.5 57.87 .877 80.24c22.38 22.37 58.26 22.75 80.26 .875c16.88-16.87 26.88-75.12 30.63-100.9C128.7 388.6 123.4 383.2 117.1 384.1z"/></svg>