<svg xmlns="http://www.w3.org/2000/svg" viewBox="0 0 512 512"><!--! Font Awesome Free 6.0.0-beta2 by @fontawesome - https://fontawesome.com License - https://fontawesome.com/license/free (Icons: CC BY 4.0, Fonts: SIL OFL 1.1, Code: MIT License) --><path d="M336 240c17.68 0 31.97-14.25 31.97-32s-14.29-32-31.97-32c-17.8 0-32.09 14.25-32.09 32S318.2 240 336 240zM175.1 240c17.8 0 32.09-14.25 32.09-32s-14.29-32-32.09-32c-17.68 0-31.97 14.25-31.97 32S158.3 240 175.1 240zM361.6 304.6C335.7 312.9 297.2 317.8 256 317.8S176.4 312.9 150.4 304.6C140.5 301.5 131 310 132.7 319.9c7.871 47.13 71.32 80 123.3 80s115.3-32.88 123.3-80C380.8 310.1 371.6 301.5 361.6 304.6zM256 0C114.6 0 0 114.6 0 256s114.6 256 256 256s256-114.6 256-256S397.4 0 256 0zM256 464c-114.7 0-208-93.31-208-208S141.3 48 256 48s208 93.31 208 208S370.7 464 256 464z"/></svg>