<svg xmlns="http://www.w3.org/2000/svg" viewBox="0 0 512 512"><!--! Font Awesome Free 6.0.0-beta2 by @fontawesome - https://fontawesome.com License - https://fontawesome.com/license/free (Icons: CC BY 4.0, Fonts: SIL OFL 1.1, Code: MIT License) --><path d="M361.6 304.6C335.7 312.9 297.2 317.8 256 317.8S176.4 312.9 150.4 304.6C140.6 301.5 131 309.9 132.7 319.9c7.871 47.25 71.32 80 123.3 80s115.3-32.88 123.3-80C380.8 310.1 371.6 301.5 361.6 304.6zM352.8 168.4L345.6 170.3l-2.059-7c-4.965-18.12-22.77-31-41.41-28c-21.43 3.5-34.39 24.25-28.82 44.5l19.38 70c1.211 4.5 5.934 7.125 10.54 6l70.11-18.25c20.46-5.25 31.97-26.88 24.22-47.13C390.9 172.8 370.9 163.8 352.8 168.4zM208.8 255.8c4.48 1.125 9.203-1.5 10.54-6l19.38-70c5.57-20.25-7.387-41-28.82-44.5c-18.53-3-36.33 9.875-41.41 28l-2.059 7L159.2 168.4c-18.16-4.625-38.14 4.375-44.8 22C106.7 210.6 118.2 232.3 138.7 237.6L208.8 255.8zM256 0C114.6 0 0 114.6 0 256s114.6 256 256 256s256-114.6 256-256S397.4 0 256 0zM256 464c-114.7 0-208-93.31-208-208S141.3 48 256 48s208 93.31 208 208S370.7 464 256 464z"/></svg>