<svg xmlns="http://www.w3.org/2000/svg" viewBox="0 0 512 512"><!--! Font Awesome Free 6.0.0-beta2 by @fontawesome - https://fontawesome.com License - https://fontawesome.com/license/free (Icons: CC BY 4.0, Fonts: SIL OFL 1.1, Code: MIT License) --><path d="M176 152c-23.73 0-52.67 29.25-55.94 71.38C119.7 227.1 121.9 230.6 125.6 231.8c3.512 1 7.58-.575 9.397-3.825l9.445-17c7.75-13.75 19.18-21.62 31.53-21.62c12.23 0 23.73 7.875 31.48 21.62l9.518 17c2.059 3.75 6.103 4.825 9.252 3.825c3.633-1.125 5.934-4.5 5.57-8.375C228.8 181.3 199.9 152 176 152zM276.9 344.4C298.6 335.3 311.9 321 311.9 308c0-19.25-28.7-41.5-71.45-44C236.7 263.6 233.1 266.4 232.3 270.3C231.4 274 233.4 277.9 236.1 279.4l16.95 7.25c12.96 5.5 20.71 13.5 20.71 21.5s-7.75 16-20.71 21.5l-16.95 7.125c-5.691 2.5-5.934 12.25 0 14.88l16.95 7.125c12.96 5.5 20.71 13.5 20.71 21.5s-7.75 16-20.71 21.5L236.1 409c-3.633 1.5-5.57 5.375-4.723 9.25c.8477 3.5 4.117 6.125 7.871 6.125h.4844c42.75-2.5 71.45-24.75 71.45-44C312.1 367.4 298.7 353.1 276.9 344.4zM336 152c-23.86 0-52.72 29.25-55.99 71.38c-.2422 3.75 1.986 7.25 5.498 8.375c3.512 1 7.58-.575 9.397-3.825l9.566-17c7.629-13.75 19.13-21.62 31.48-21.62c12.23 0 23.73 7.875 31.48 21.62l9.445 17c2.18 3.75 6.224 4.825 9.252 3.825c3.633-1.125 5.934-4.5 5.57-8.375C388.7 181.3 359.8 152 336 152zM256 0C114.6 0 0 114.6 0 256s114.6 256 256 256s256-114.6 256-256S397.4 0 256 0zM256 464c-114.7 0-208-93.31-208-208S141.3 48 256 48s208 93.31 208 208S370.7 464 256 464z"/></svg>