<svg xmlns="http://www.w3.org/2000/svg" viewBox="0 0 512 512"><!--! Font Awesome Free 6.0.0-beta2 by @fontawesome - https://fontawesome.com License - https://fontawesome.com/license/free (Icons: CC BY 4.0, Fonts: SIL OFL 1.1, Code: MIT License) --><path d="M340 312.6C319.2 337.6 288.5 352 256 352s-63.21-14.25-84.04-39.38c-8.477-10.25-23.61-11.5-33.79-3.125C128 318 126.7 333.1 135.1 343.3c29.91 36 74.11 56.73 120.9 56.73s90.94-20.73 120.9-56.73c8.598-10.12 7.145-25.25-3.027-33.75C363.7 301.1 348.5 302.4 340 312.6zM144.5 210.9c7.75-13.75 19.25-21.62 31.48-21.62c12.35 0 23.86 7.875 31.48 21.62l9.566 17C219.1 231.7 223.2 232.8 226.3 231.8c3.512-1.125 5.934-4.5 5.691-8.375C228.8 181.3 199.8 152 175.1 152c-23.73 0-52.68 29.25-55.95 71.38C119.6 227.1 122.1 230.6 125.7 231.8c3.391 1 7.459-.575 9.397-3.825L144.5 210.9zM336 152c-23.86 0-52.72 29.25-55.99 71.38c-.2422 3.75 2.107 7.25 5.619 8.375c3.512 1 7.387-.575 9.324-3.825l9.566-17c7.629-13.75 19.13-21.62 31.48-21.62c12.23 0 23.73 7.875 31.48 21.62l9.445 17c2.18 3.75 6.176 4.825 9.324 3.825c3.633-1.125 6.127-4.5 5.764-8.375C388.8 181.3 359.8 152 336 152zM256 0C114.6 0 0 114.6 0 256s114.6 256 256 256s256-114.6 256-256S397.4 0 256 0zM256 464c-114.7 0-208-93.31-208-208S141.3 48 256 48s208 93.31 208 208S370.7 464 256 464z"/></svg>