<svg xmlns="http://www.w3.org/2000/svg" viewBox="0 0 512 512"><!--! Font Awesome Free 6.0.0-beta2 by @fontawesome - https://fontawesome.com License - https://fontawesome.com/license/free (Icons: CC BY 4.0, Fonts: SIL OFL 1.1, Code: MIT License) --><path d="M159.1 180c-25.67 0-55.82 16.88-59.82 42.13c-.7266 5 1.695 10 6.176 12.38c4.359 2.375 9.93 1.75 13.68-1.625l9.445-8.5c14.89-13.12 46.26-13.12 61.03 0l9.566 8.5C202.5 235.1 208 237.6 213.7 234.5c4.359-2.375 6.902-7.375 6.055-12.38C215.9 196.9 185.6 180 159.1 180zM256 0C114.6 0 0 114.6 0 256c0 140.6 113.3 254.6 253.6 255.9c.3672 .0098 .707 .1113 1.074 .1172c.1484 0 .2656-.0163 .4141-.0163C255.4 511.1 255.8 512 256.1 512C397.5 512 512 397.4 512 256S397.4 0 256 0zM320.1 416c0 35.63-29.18 64.5-64.91 64c-35.12-.5-63.21-29.75-63.21-65v-50.75l17.8-8.875c15.02-7.5 31.48 1.75 34.88 16.5l2.785 12.12c2.059 9.25 15.26 9.25 17.32 0l2.785-12.12c3.391-14.75 19.74-24.12 34.88-16.5l17.68 8.875V416zM352 440.3l.0586-75.87c14.15-12.37 24.31-27.48 27.21-44.47c1.695-9.875-7.629-18.5-17.68-15.25C335.7 313 297.2 317.8 256 317.8s-79.56-4.75-105.6-13C140.5 301.6 131 310 132.7 320c2.904 16.99 13.07 32.1 27.21 44.47L160 440.3C93.53 405.6 48 336.1 48 256c0-114.7 93.31-208 208-208s208 93.31 208 208C464 336.1 418.5 405.6 352 440.3zM336 128C291.8 128 256 163.8 256 208c0 44.25 35.84 80 80.04 80S415.1 252.3 415.1 208C415.1 163.8 380.2 128 336 128zM336 256c-26.52 0-48.07-21.5-48.07-48S309.5 160 336 160c26.4 0 47.95 21.5 47.95 48S362.4 256 336 256zM336 184c-13.32 0-24.04 10.75-24.04 24s10.72 24 24.04 24c13.2 0 23.97-10.75 23.97-24S349.2 184 336 184z"/></svg>