<svg xmlns="http://www.w3.org/2000/svg" viewBox="0 0 384 512"><!--! Font Awesome Free 6.0.0-beta2 by @fontawesome - https://fontawesome.com License - https://fontawesome.com/license/free (Icons: CC BY 4.0, Fonts: SIL OFL 1.1, Code: MIT License) --><path d="M256 177.3V142.7c0-4.594-3.727-8.32-8.32-8.32h-30.08V104.3C217.6 99.73 213.9 96 209.3 96H174.7C170.1 96 166.4 99.73 166.4 104.3v30.08H136.3C131.7 134.4 128 138.1 128 142.7v34.56c0 4.594 3.727 8.32 8.32 8.32h30.08v30.08C166.4 220.3 170.1 224 174.7 224h34.56c4.594 0 8.32-3.727 8.32-8.32V185.6h30.08C252.3 185.6 256 181.9 256 177.3zM148 288h-40C101.4 288 96 293.4 96 300v40C96 346.6 101.4 352 108 352h40C154.6 352 160 346.6 160 340v-40C160 293.4 154.6 288 148 288zM148 384h-40C101.4 384 96 389.4 96 396v40C96 442.6 101.4 448 108 448h40C154.6 448 160 442.6 160 436v-40C160 389.4 154.6 384 148 384zM320 0H64C28.65 0 0 28.65 0 64v424C0 501.3 10.75 512 24 512s24-10.75 24-24V64c0-8.838 7.164-16 16-16h256c8.836 0 16 7.162 16 16v424c0 13.25 10.75 24 24 24S384 501.3 384 488V64C384 28.65 355.3 0 320 0zM276 288h-40C229.4 288 224 293.4 224 300v40C224 346.6 229.4 352 236 352h40C282.6 352 288 346.6 288 340v-40C288 293.4 282.6 288 276 288zM276 384h-40C229.4 384 224 389.4 224 396v40C224 442.6 229.4 448 236 448h40C282.6 448 288 442.6 288 436v-40C288 389.4 282.6 384 276 384z"/></svg>