<svg xmlns="http://www.w3.org/2000/svg" viewBox="0 0 512 512"><!--! Font Awesome Free 6.0.0-beta2 by @fontawesome - https://fontawesome.com License - https://fontawesome.com/license/free (Icons: CC BY 4.0, Fonts: SIL OFL 1.1, Code: MIT License) --><path d="M453.2 419.2C489.9 374.9 512 318.1 512 256s-22.09-118.9-58.82-163.2l11.79-11.79c9.375-9.375 9.375-24.56 0-33.94s-24.56-9.375-33.94 0l-11.79 11.79C374.9 22.09 318.1 0 256 0S137.1 22.09 92.76 58.82L80.97 47.03c-9.375-9.375-24.56-9.375-33.94 0s-9.375 24.56 0 33.94l11.79 11.79C22.09 137.1 0 193.9 0 256s22.09 118.9 58.82 163.2l-11.79 11.79c-9.375 9.375-9.375 24.56 0 33.94C51.72 469.7 57.86 472 64 472s12.28-2.344 16.97-7.031l11.79-11.79C137.1 489.9 193.9 512 256 512s118.9-22.09 163.2-58.82l11.79 11.79C435.7 469.7 441.9 472 448 472s12.28-2.344 16.97-7.031c9.375-9.375 9.375-24.56 0-33.94L453.2 419.2zM464 256c0 48.71-16.95 93.47-45.11 128.1l-80.47-80.47C346.8 290.2 352 273.8 352 256s-5.16-34.21-13.58-48.48l80.47-80.47C447 162.5 464 207.3 464 256zM208 256c0-26.47 21.53-48 48-48s48 21.53 48 48S282.5 304 256 304S208 282.5 208 256zM256 48c48.71 0 93.47 16.95 128.1 45.11l-80.47 80.47C290.2 165.2 273.8 160 256 160S221.8 165.2 207.5 173.6L127 93.11C162.5 64.95 207.3 48 256 48zM48 256c0-48.71 16.95-93.47 45.11-128.1l80.47 80.47C165.2 221.8 160 238.2 160 256s5.16 34.21 13.58 48.48l-80.47 80.47C64.95 349.5 48 304.7 48 256zM256 464c-48.71 0-93.47-16.95-128.1-45.11l80.47-80.47C221.8 346.8 238.2 352 256 352s34.21-5.16 48.48-13.58l80.47 80.47C349.5 447 304.7 464 256 464z"/></svg>