<svg xmlns="http://www.w3.org/2000/svg" viewBox="0 0 576 512"><!--! Font Awesome Free 6.0.0-beta2 by @fontawesome - https://fontawesome.com License - https://fontawesome.com/license/free (Icons: CC BY 4.0, Fonts: SIL OFL 1.1, Code: MIT License) --><path d="M336 300.4v23.11C336 330.4 330.4 336 323.6 336H252.4C245.6 336 240 330.4 240 323.6V300.4C240 293.6 245.6 288 252.4 288H264V224H252.4c-4.273 0-8.359-2.332-10.5-5.832C239.6 214.5 239.4 209.8 241.3 205.9l12.44-23.11C255.9 178.7 259.3 176 264 176h35.55C306.4 176 312 181.6 312 188.4V288h11.55C330.4 288 336 293.6 336 300.4zM576 128v256c0 35.35-28.65 64-64 64H64c-35.35 0-64-28.65-64-64V128c0-35.35 28.65-64 64-64h448C547.3 64 576 92.65 576 128zM528 176c-35.38 0-64-28.62-64-64h-352c0 35.38-28.62 64-64 64v160c35.38 0 64 28.62 64 64h352c0-35.38 28.62-64 64-64V176z"/></svg>