<svg xmlns="http://www.w3.org/2000/svg" viewBox="0 0 448 512"><!--! Font Awesome Free 6.0.0-beta2 by @fontawesome - https://fontawesome.com License - https://fontawesome.com/license/free (Icons: CC BY 4.0, Fonts: SIL OFL 1.1, Code: MIT License) --><path d="M416 160H31.1C14.33 160 0 174.3 0 192S14.33 224 31.1 224h384C433.7 224 448 209.7 448 192S433.7 160 416 160zM416 416H31.1C14.33 416 0 430.3 0 448S14.33 480 31.1 480h384C433.7 480 448 465.7 448 448S433.7 416 416 416zM127.1 96h192C337.7 96 352 81.67 352 64S337.7 32 320 32H127.1C110.3 32 96 46.33 96 64S110.3 96 127.1 96zM320 352C337.7 352 352 337.7 352 320S337.7 288 320 288H127.1C110.3 288 96 302.3 96 320S110.3 352 127.1 352H320z"/></svg>