<svg xmlns="http://www.w3.org/2000/svg" viewBox="0 0 448 512"><!--! Font Awesome Free 6.0.0-beta2 by @fontawesome - https://fontawesome.com License - https://fontawesome.com/license/free (Icons: CC BY 4.0, Fonts: SIL OFL 1.1, Code: MIT License) --><path d="M416 416H32c-17.67 0-32 14.33-32 32S14.33 480 32 480h384c17.67 0 32-14.33 32-31.1S433.7 416 416 416zM32 224h384c17.67 0 32-14.33 32-31.1S433.7 160 416 160H32C14.33 160 0 174.3 0 192S14.33 224 32 224zM32 96h224c17.67 0 32-14.33 32-31.1S273.7 32 256 32H32C14.33 32 0 46.33 0 64S14.33 96 32 96zM32 352h224c17.67 0 32-14.33 32-31.1S273.7 288 256 288H32c-17.67 0-32 14.33-32 32S14.33 352 32 352z"/></svg>