<svg xmlns="http://www.w3.org/2000/svg" viewBox="0 0 448 512"><!--! Font Awesome Free 6.0.0-beta2 by @fontawesome - https://fontawesome.com License - https://fontawesome.com/license/free (Icons: CC BY 4.0, Fonts: SIL OFL 1.1, Code: MIT License) --><path d="M0 448C0 465.7 14.33 480 32 480h384c17.67 0 32-14.33 32-31.1S433.7 416 416 416H32C14.33 416 0 430.3 0 448zM448 192C448 174.3 433.7 160 416 160H32C14.33 160 0 174.3 0 192S14.33 224 32 224h384C433.7 224 448 209.7 448 192zM448 64C448 46.33 433.7 32 416 32H192C174.3 32 160 46.33 160 64S174.3 96 192 96h224C433.7 96 448 81.67 448 64zM448 320C448 302.3 433.7 288 416 288H192c-17.67 0-32 14.33-32 32S174.3 352 192 352h224C433.7 352 448 337.7 448 320z"/></svg>