<svg xmlns="http://www.w3.org/2000/svg" viewBox="0 0 576 512"><!--! Font Awesome Free 6.0.0-beta2 by @fontawesome - https://fontawesome.com License - https://fontawesome.com/license/free (Icons: CC BY 4.0, Fonts: SIL OFL 1.1, Code: MIT License) --><path d="M576 128v160c0 17.67-14.31 32-32 32s-32-14.33-32-32V205.3l-169.4 169.4C336.4 380.9 328.2 384 320 384s-16.38-3.125-22.62-9.375L192 269.3l-137.4 137.4C48.38 412.9 40.19 416 32 416c-18.28 0-32-14.95-32-32c0-8.188 3.125-16.38 9.375-22.62l160-160C175.6 195.1 183.8 192 192 192s16.38 3.125 22.62 9.375L320 306.8L466.8 160H384c-17.69 0-32-14.33-32-32s14.31-32 32-32h160C560.8 96 576 109.4 576 128z"/></svg>