<svg xmlns="http://www.w3.org/2000/svg" viewBox="0 0 448 512"><!--! Font Awesome Free 6.0.0-beta2 by @fontawesome - https://fontawesome.com License - https://fontawesome.com/license/free (Icons: CC BY 4.0, Fonts: SIL OFL 1.1, Code: MIT License) --><path d="M416 320h-50.67l-13.33-32H416c17.67 0 32-14.33 32-32s-14.33-32-32-32h-90.67l-71.8-172.3C248.6 39.77 236.9 32 224 32S199.4 39.77 194.5 51.69L122.7 224H32C14.33 224 0 238.3 0 256s14.33 32 32 32h64.01l-13.33 32H32c-17.67 0-32 14.33-32 32s14.33 32 32 32h24.01l-21.54 51.69C27.67 452 35.38 470.7 51.69 477.5c16.36 6.875 35.08-.9219 41.84-17.22L125.3 384h197.3l31.8 76.31c5.109 12.28 17.02 19.7 29.55 19.7c4.094 0 8.266-.7969 12.3-2.484c16.31-6.797 24.02-25.53 17.22-41.84L391.1 384H416c17.67 0 32-14.33 32-32S433.7 320 416 320zM224 147.2L256 224H192L224 147.2zM151.1 320l13.33-32h117.3l13.33 32H151.1z"/></svg>