<svg xmlns="http://www.w3.org/2000/svg" viewBox="0 0 448 512"><!--! Font Awesome Free 6.0.0-beta2 by @fontawesome - https://fontawesome.com License - https://fontawesome.com/license/free (Icons: CC BY 4.0, Fonts: SIL OFL 1.1, Code: MIT License) --><path d="M416 160h-72V120C344 53.83 290.2 0 224 0S104 53.83 104 120V160H32C14.33 160 0 174.3 0 192v240C0 476.2 35.82 512 80 512h288c44.18 0 80-35.82 80-80V192C448 174.3 433.7 160 416 160zM152 120C152 80.3 184.3 48 224 48s72 32.3 72 72V160h-144V120zM128 248C114.8 248 104 237.3 104 224S114.8 200 128 200S152 210.8 152 224S141.3 248 128 248zM320 248c-13.25 0-24-10.75-24-24S306.8 200 320 200S344 210.8 344 224S333.3 248 320 248z"/></svg>