<svg xmlns="http://www.w3.org/2000/svg" viewBox="0 0 512 512"><!--! Font Awesome Free 6.0.0-beta2 by @fontawesome - https://fontawesome.com License - https://fontawesome.com/license/free (Icons: CC BY 4.0, Fonts: SIL OFL 1.1, Code: MIT License) --><path d="M31.1 128H416C433.7 128 448 113.7 448 96S433.7 64 416 64H31.1C14.33 64 0 78.33 0 95.1S14.33 128 31.1 128zM480 224H95.1C78.33 224 64 238.3 64 256s14.33 32 31.1 32h384C497.7 288 512 273.7 512 256S497.7 224 480 224zM416 384H31.1C14.33 384 0 398.3 0 415.1S14.33 448 31.1 448H416C433.7 448 448 433.7 448 416S433.7 384 416 384z"/></svg>