<svg xmlns="http://www.w3.org/2000/svg" viewBox="0 0 576 512"><!--! Font Awesome Free 6.0.0-beta2 by @fontawesome - https://fontawesome.com License - https://fontawesome.com/license/free (Icons: CC BY 4.0, Fonts: SIL OFL 1.1, Code: MIT License) --><path d="M560 192l-101.6 .002l-93.11-179.1c-6.062-11.72-20.61-16.37-32.36-10.22c-11.78 6.094-16.34 20.59-10.22 32.34l81.61 156.9H171.7l81.61-156.9C259.4 23.32 254.9 8.822 243.1 2.728C231.3-3.397 216.8 1.228 210.7 12.95l-93.11 179.1L16 192c-8.836 0-16 7.164-16 15.1v32c0 8.836 7.164 15.1 16 15.1h23.11l45.75 205.9C91.37 491.2 117.3 512 147.3 512h281.3c29.1 0 55.97-20.83 62.48-50.12l45.75-205.9H560c8.838 0 16-7.164 16-15.1v-32C576 199.2 568.8 192 560 192zM192 432c0 8.834-7.166 15.1-16 15.1c-8.832 0-16-7.166-16-15.1V304c0-8.834 7.168-15.1 16-15.1c8.834 0 16 7.166 16 15.1V432zM304 432c0 8.834-7.166 15.1-16 15.1c-8.832 0-16-7.165-16-15.1V304c0-8.834 7.168-15.1 16-15.1c8.834 0 16 7.166 16 15.1V432zM416 432c0 8.834-7.166 15.1-16 15.1c-8.832 0-16-7.166-16-15.1V304c0-8.834 7.168-15.1 16-15.1c8.834 0 16 7.166 16 15.1V432z"/></svg>