<svg xmlns="http://www.w3.org/2000/svg" viewBox="0 0 576 512"><!--! Font Awesome Free 6.0.0-beta2 by @fontawesome - https://fontawesome.com License - https://fontawesome.com/license/free (Icons: CC BY 4.0, Fonts: SIL OFL 1.1, Code: MIT License) --><path d="M224 288H160v96l-32-21.25L96 384V288H32c-17.6 0-32 14.4-32 32v160c0 17.6 14.4 32 32 32h192c17.6 0 32-14.4 32-32v-160C256 302.4 241.6 288 224 288zM192 224h192c17.6 0 32-14.4 32-32V32c0-17.6-14.4-32-32-32h-64v96l-32-21.25L256 96V0H192C174.4 0 160 14.4 160 32v160C160 209.6 174.4 224 192 224zM544 288h-64v96l-32-21.25L416 384V288h-64c-17.6 0-32 14.4-32 32v160c0 17.6 14.4 32 32 32h192c17.6 0 32-14.4 32-32v-160C576 302.4 561.6 288 544 288z"/></svg>