<svg xmlns="http://www.w3.org/2000/svg" viewBox="0 0 576 512"><!--! Font Awesome Free 6.0.0-beta2 by @fontawesome - https://fontawesome.com License - https://fontawesome.com/license/free (Icons: CC BY 4.0, Fonts: SIL OFL 1.1, Code: MIT License) --><path d="M224 464c0 26.51-21.49 48-47.1 48s-47.1-21.49-47.1-48S149.5 416 176 416S224 437.5 224 464zM569.5 44.73C563.4 36.64 554.1 32 543.1 32H360v102.1l23.03-23.03c9.375-9.375 24.56-9.375 33.94 0s9.375 24.56 0 33.94l-64 64C348.3 213.7 342.1 216 336 216s-12.28-2.344-16.97-7.031l-64-64c-9.375-9.375-9.375-24.56 0-33.94s24.56-9.375 33.94 0L312 134.1V32H121.1L119.6 19.51C117.4 8.19 107.5 0 96 0H23.1C10.75 0 0 10.75 0 23.1S10.75 48 23.1 48h52.14l60.28 316.5C138.6 375.8 148.5 384 160 384H488c13.25 0 24-10.75 24-23.1C512 346.7 501.3 336 488 336H179.9L170.7 288h318.4c14.29 0 26.84-9.47 30.77-23.21l54.86-191.1C577.5 63.05 575.6 52.83 569.5 44.73zM463.1 416c-26.51 0-47.1 21.49-47.1 48s21.49 48 47.1 48s47.1-21.49 47.1-48S490.5 416 463.1 416z"/></svg>