<svg xmlns="http://www.w3.org/2000/svg" viewBox="0 0 512 512"><!--! Font Awesome Free 6.0.0-beta2 by @fontawesome - https://fontawesome.com License - https://fontawesome.com/license/free (Icons: CC BY 4.0, Fonts: SIL OFL 1.1, Code: MIT License) --><path d="M511 377.3l-26.53-158.6c-2.569-15.37-15.99-26.63-31.56-26.63L208.1 192.1v-64L288.1 128.1c17.6 0 32.01-14.4 32.01-32V32c0-17.6-14.4-32-32-32h-224c-17.6 0-32 14.4-32 32v63.96c0 17.6 14.4 32 32 32L144.1 128v64L59.24 192c-15.65 0-29.03 11.31-31.61 26.75c0 0-27.33 166.1-27.62 170.5V480c0 17.67 14.33 32 31.1 32H479.1c17.67 0 31.1-14.33 31.1-32l-.0052-90.75C511.7 385.1 511.3 380.6 511 377.3zM280.1 248c0-8.75 7.249-16 15.1-16h15.1c8.75 0 15.1 7.25 15.1 16v16c0 8.75-7.249 16-15.1 16h-15.1c-8.75 0-15.1-7.25-15.1-16V248zM248.1 312h15.1c8.75 0 15.1 7.25 15.1 16v16c0 8.75-7.249 16-15.1 16h-15.1c-8.75 0-15.1-7.25-15.1-16v-16C232.1 319.2 239.4 312 248.1 312zM216.1 232c8.75 0 15.1 7.25 15.1 16v16c0 8.75-7.249 16-15.1 16h-15.1c-8.75 0-15.1-7.25-15.1-16v-16c0-8.75 7.249-16 15.1-16H216.1zM80.12 80v-32h191.1v32H80.12zM120.1 280h-15.1c-8.75 0-15.1-7.25-15.1-16v-16c0-8.75 7.249-16 15.1-16h15.1c8.75 0 15.1 7.25 15.1 16v16C136.1 272.8 128.9 280 120.1 280zM136.1 344v-16c0-8.75 7.249-16 15.1-16h15.1c8.75 0 15.1 7.25 15.1 16v16c0 8.75-7.249 16-15.1 16h-15.1C143.4 360 136.1 352.8 136.1 344zM352.1 448c0 8.8-7.2 16-15.1 16H176.1c-8.8 0-15.1-7.2-15.1-16s7.2-16 15.1-16h159.1C344.9 432 352.1 439.2 352.1 448zM376.1 344c0 8.75-7.249 16-15.1 16h-15.1c-8.75 0-15.1-7.25-15.1-16v-16c0-8.75 7.249-16 15.1-16h15.1c8.75 0 15.1 7.25 15.1 16V344zM424.1 264c0 8.75-7.249 16-15.1 16h-15.1c-8.75 0-15.1-7.25-15.1-16v-16c0-8.75 7.249-16 15.1-16h15.1c8.75 0 15.1 7.25 15.1 16V264z"/></svg>