<svg xmlns="http://www.w3.org/2000/svg" viewBox="0 0 320 512"><!--! Font Awesome Free 6.0.0-beta2 by @fontawesome - https://fontawesome.com License - https://fontawesome.com/license/free (Icons: CC BY 4.0, Fonts: SIL OFL 1.1, Code: MIT License) --><path d="M267.5 355.5C254.3 366.5 239.5 374.1 224 378.7V133.3c15.45 4.656 30.29 12.23 43.53 23.24c13.53 11.28 33.75 9.438 45.06-4.125s9.469-33.75-4.125-45.06C283.2 86.29 254 73.6 224 67.78V32c0-17.69-14.33-32-31.1-32S160 14.31 160 32v34.76C121.6 72.86 84.63 90.35 55.11 120.5c-73.3 74.72-73.3 196.3-.0156 271.1C84.63 421.7 121.6 439.3 160 445.4V480c0 17.69 14.33 32 32 32S224 497.7 224 480v-35.36c30.06-5.814 59.17-18.91 84.47-39.98c13.59-11.31 15.44-31.5 4.125-45.06C301.3 346 281 344.2 267.5 355.5zM100.8 346.7C51.73 296.7 51.73 215.3 100.8 165.3C117.7 148 138.3 136.7 160 131.4v249.2C138.3 375.3 117.7 363.1 100.8 346.7z"/></svg>