<svg xmlns="http://www.w3.org/2000/svg" viewBox="0 0 576 512"><!--! Font Awesome Free 6.0.0-beta2 by @fontawesome - https://fontawesome.com License - https://fontawesome.com/license/free (Icons: CC BY 4.0, Fonts: SIL OFL 1.1, Code: MIT License) --><path d="M559.7 288l-237.2-.0006l157.1 158c6.124 6.124 15.99 6.484 22.24 .7343c38.62-36.5 65.25-85.62 73.12-140.9C577.2 296.4 569.4 288 559.7 288zM543.1 223.2c-8.249-119.5-103.7-214.1-223.2-223.2c-9.124-.6249-16.76 7.113-16.76 16.24L304 240l223.7-.0012C536.9 240 544.6 232.4 543.1 223.2zM256 288V50.75c0-9.624-8.369-17.48-17.87-16.11C119 51.52 27.89 155.6 32.14 280.4c4.375 128.1 114.8 233.2 242.9 231.6c50.37-.6249 97-16.88 135.2-44c7.999-5.624 8.487-17.24 1.612-24.11L256 288z"/></svg>