<svg xmlns="http://www.w3.org/2000/svg" viewBox="0 0 512 512"><!--! Font Awesome Free 6.0.0-beta2 by @fontawesome - https://fontawesome.com License - https://fontawesome.com/license/free (Icons: CC BY 4.0, Fonts: SIL OFL 1.1, Code: MIT License) --><path d="M464 352h-16.5c-19.62 26-44.63 47.75-73 64H432c8.836 0 16 7.162 16 16c0 8.836-7.164 16-16 16h-352C71.16 448 64 440.8 64 432C64 423.2 71.16 416 80 416h57.38c-28.38-16.25-53.25-38-73-64H48C21.49 352 0 373.5 0 400v64C0 490.5 21.49 512 48 512h416c26.51 0 48-21.49 48-48v-64C512 373.5 490.5 352 464 352zM256 416c114.9 0 208-93.13 208-208S370.9 0 256 0S48 93.13 48 208S141.1 416 256 416zM249.4 231l-6.5-1.875C224.7 223.8 176.4 209.6 184.1 160.1c4.105-23.88 21.79-39.91 47.06-45.62V104c0-13.25 10.74-24 23.99-24s24.01 10.75 24.01 24v11.25c5.9 1.363 12.21 3.092 19.81 5.719c12.53 4.344 19.16 18 14.84 30.53C310.4 164 296.7 170.6 284.2 166.3c-8.281-2.875-14.72-4.641-19.66-5.422c-16.88-2.641-31.06 .6094-32.22 7.391C231.6 172.4 231 175.6 256.4 183.1l6.188 1.797c25.53 7.297 73.13 20.91 64.44 70.95c-4.115 23.86-21.73 39.99-47 45.71V312c0 13.25-10.76 24-24.01 24s-23.99-10.75-23.99-24V300.6C222.5 298.4 213.1 295.3 204.6 292.3L199.1 290.6C187.5 286.2 180.9 272.5 185.4 259.1s18.12-19.02 30.66-14.61l4.875 1.75C229.7 250.3 239.7 253.9 247.3 255c17.12 2.734 31.22-.5938 32.38-7.359C280.5 242.9 281 240.1 249.4 231z"/></svg>