<svg xmlns="http://www.w3.org/2000/svg" viewBox="0 0 640 512"><!--! Font Awesome Free 6.0.0-beta2 by @fontawesome - https://fontawesome.com License - https://fontawesome.com/license/free (Icons: CC BY 4.0, Fonts: SIL OFL 1.1, Code: MIT License) --><path d="M640 240v240c0 17.67-14.33 32-32 32H32c-17.67 0-32-14.33-32-32L0 144c0-26.51 21.49-48 48-48H64V24.01c0-13.25 10.75-23.1 24-23.1S112 10.75 112 24.01v72h64V24.01c0-13.25 10.75-23.1 24-23.1S224 10.75 224 24.01v71.1h64V48.01c0-26.51 21.49-48 48-48l96 .0049c26.51 0 48 21.49 48 48v143.1h112C618.5 192 640 213.5 640 240zM128 172c0-6.625-5.375-12-12-12h-40c-6.625 0-12 5.375-12 12v40c0 6.625 5.375 12 12 12h40c6.625 0 12-5.375 12-12V172zM128 268c0-6.625-5.375-12-12-12h-40c-6.625 0-12 5.375-12 12v40c0 6.625 5.375 12 12 12h40c6.625 0 12-5.375 12-12V268zM128 364c0-6.625-5.375-12-12-12h-40c-6.625 0-12 5.375-12 12v40c0 6.625 5.375 12 12 12h40c6.625 0 12-5.375 12-12V364zM256 172c0-6.625-5.375-12-12-12h-40c-6.625 0-12 5.375-12 12v40c0 6.625 5.375 12 12 12h40c6.625 0 12-5.375 12-12V172zM256 268c0-6.625-5.375-12-12-12h-40C197.4 256 192 261.4 192 268v40c0 6.625 5.375 12 12 12h40c6.625 0 12-5.375 12-12V268zM256 364c0-6.625-5.375-12-12-12h-40c-6.625 0-12 5.38-12 12v40c0 6.625 5.375 12 12 12h40c6.625 0 12-5.375 12-12V364zM416 76.01c0-6.625-5.375-12-12-12h-40c-6.625 0-12 5.375-12 12v40c0 6.625 5.375 12 12 12h40c6.625 0 12-5.375 12-12V76.01zM416 172c0-6.625-5.375-12-12-12h-40c-6.625 0-12 5.38-12 12v40c0 6.625 5.375 12 12 12h40c6.625 0 12-5.375 12-12V172zM416 268c0-6.625-5.375-12-12-12h-40c-6.625 0-12 5.38-12 12v40c0 6.625 5.375 12 12 12h40c6.625 0 12-5.375 12-12V268zM576 268c0-6.625-5.375-12-12-12h-40c-6.625 0-12 5.375-12 12v40c0 6.625 5.375 12 12 12h40c6.625 0 12-5.375 12-12V268zM576 364c0-6.625-5.375-12-12-12h-40c-6.625 0-12 5.375-12 12v40c0 6.625 5.375 12 12 12h40c6.625 0 12-5.375 12-12V364z"/></svg>