<svg xmlns="http://www.w3.org/2000/svg" viewBox="0 0 320 512"><!--! Font Awesome Free 6.0.0-beta2 by @fontawesome - https://fontawesome.com License - https://fontawesome.com/license/free (Icons: CC BY 4.0, Fonts: SIL OFL 1.1, Code: MIT License) --><path d="M267.5 355.5c-9.914 8.248-20.85 14.2-32.13 18.87l52.71-210.8c9.139-.0391 18.19-3.541 24.48-11.1c11.31-13.56 9.469-33.75-4.125-45.06c-1.713-1.426-3.65-2.342-5.396-3.697l15.97-63.9c4.281-17.12-6.141-34.5-23.28-38.78c-17.11-4.281-34.52 6.094-38.81 23.28l-12.08 48.31c-9.33-2.965-18.83-5.062-28.4-6.508l6.576-26.3c4.281-17.12-6.141-34.5-23.28-38.78c-17.12-4.281-34.5 6.094-38.81 23.28L149.1 68.21C115.2 75.71 82.06 92.97 55.11 120.5c-73.3 74.72-73.3 196.3-.0156 271.1c3.615 3.688 7.791 6.365 11.62 9.697l-17.76 71.02c-4.281 17.12 6.141 34.5 23.28 38.78C74.84 511.7 77.44 512 80.02 512c14.33 0 27.39-9.688 31.03-24.25l12.95-51.79c9.16 3.434 18.42 6.561 27.91 8.498l-6.947 27.79c-4.281 17.12 6.141 34.5 23.28 38.78C170.8 511.7 173.4 512 176 512c14.33 0 27.39-9.688 31.03-24.25l10.48-41.93c32.36-5.068 63.82-18.58 90.94-41.17c13.59-11.31 15.44-31.5 4.125-45.06C301.3 346 281 344.2 267.5 355.5zM100.8 165.3C109.1 155.9 120.4 148.8 131.3 142.1l-46.07 184.3C52.52 277.4 57.68 209.3 100.8 165.3zM139.6 373.6l61.21-244.9c9.648 .9453 19.18 2.943 28.48 6.215l-61.7 246.8C158 380.1 148.6 377.6 139.6 373.6z"/></svg>