<svg xmlns="http://www.w3.org/2000/svg" viewBox="0 0 512 512"><!--! Font Awesome Free 6.0.0-beta2 by @fontawesome - https://fontawesome.com License - https://fontawesome.com/license/free (Icons: CC BY 4.0, Fonts: SIL OFL 1.1, Code: MIT License) --><path d="M256 224C238.3 224 224 238.3 224 256c0 17.67 14.33 32 32 32s32-14.33 32-32C288 238.3 273.7 224 256 224zM480 224h-9.008C456.9 128.7 381.5 54.98 288 41.04V32c0-17.67-14.33-32-32-32S224 14.33 224 32v9.037C130.5 54.98 55.06 128.7 41.01 224H32C14.33 224 0 238.3 0 256c0 17.67 14.33 32 32 32h8.93C54.61 383.5 128.5 457.4 224 471.1V480c0 17.67 14.33 32 31.1 32S288 497.7 288 480v-8.93C383.5 457.4 457.4 383.5 471.1 288H480c17.67 0 32-14.33 32-32C512 238.3 497.7 224 480 224zM364.8 364.8c-22.11 22.11-48.92 35.95-76.8 41.97V384c0-17.67-14.33-32-32-32S224 366.3 224 384v22.47c-27.19-6.15-52.91-19.83-73.6-41.67C129.5 342.7 115.9 315.9 109.8 288H128c17.67 0 31.1-14.33 31.1-32c0-17.67-14.33-32-31.1-32H109.5c5.768-27.19 19.04-52.91 40.88-73.6C171.7 130.3 197.3 117.2 224 110.8V128c0 17.67 14.33 32 31.1 32S288 145.7 288 128V108.6c28.4 5.352 55.28 19.1 76.8 41.81C385.2 170.8 398.8 196.2 405.2 224H384c-17.67 0-32 14.33-32 32c0 17.67 14.33 32 32 32h22.6C400.7 316.3 386.4 343.2 364.8 364.8z"/></svg>