<svg xmlns="http://www.w3.org/2000/svg" viewBox="0 0 576 512"><!--! Font Awesome Free 6.0.0-beta2 by @fontawesome - https://fontawesome.com License - https://fontawesome.com/license/free (Icons: CC BY 4.0, Fonts: SIL OFL 1.1, Code: MIT License) --><path d="M555.2 256.6L448 215.8V78.95c0-13.53-8.273-25.64-20.76-30.4l-116.8-44.42C303.2 1.377 295.6 0 288 0S272.8 1.377 265.5 4.135L148.8 48.56C136.3 53.31 128 65.42 128 78.95v136.8L20.76 256.6C8.273 261.3 0 273.5 0 287v146c0 13.53 8.273 25.65 20.76 30.4l116.8 44.42C144.8 510.6 152.4 512 160 512s15.23-1.379 22.47-4.135L288 467.7l105.5 40.15C400.8 510.6 408.4 512 416 512s15.23-1.379 22.47-4.135l116.8-44.42C567.7 458.7 576 446.6 576 433V287C576 273.5 567.7 261.3 555.2 256.6zM160 324.5L62.52 292L153.7 257.3l97.07 36.93L160 324.5zM264 425.5l-80 30.44V367.1l80-26.67V425.5zM190.5 84.03l92.08-35.03C284.3 48.34 286.2 48 288 48s3.662 .3359 5.404 .998l92.07 35.03L288 116.5L190.5 84.03zM400 129.8v80.55c-2.166 .5684-4.359 1.003-6.473 1.808L312 243.1V159.1L400 129.8zM416 324.5l-90.79-30.26l97.06-36.93l91.2 34.7L416 324.5zM528 422.4l-88 33.48V367.1l88-29.33V422.4z"/></svg>