<svg xmlns="http://www.w3.org/2000/svg" viewBox="0 0 640 512"><!--! Font Awesome Free 6.0.0-beta2 by @fontawesome - https://fontawesome.com License - https://fontawesome.com/license/free (Icons: CC BY 4.0, Fonts: SIL OFL 1.1, Code: MIT License) --><path d="M368 320h-96C245.6 320 224 341.6 224 368v96C224 490.4 245.6 512 272 512h96c26.4 0 48-21.6 48-48v-96C416 341.6 394.4 320 368 320zM591.1 0h-96c-26.4 0-48 21.6-48 48v96c0 26.4 21.6 48 48 48h96c26.4 0 48-21.6 48-48v-96C639.1 21.6 618.4 0 591.1 0zM192 48C192 21.6 170.4 0 144 0h-96C21.6 0 0 21.6 0 48v96C0 170.4 21.6 192 48 192h79.83l73.04 128C212 301 232.4 288 256 288L192 175.5V128h224V64H192V48z"/></svg>