<svg xmlns="http://www.w3.org/2000/svg" viewBox="0 0 448 512"><!--! Font Awesome Free 6.0.0-beta2 by @fontawesome - https://fontawesome.com License - https://fontawesome.com/license/free (Icons: CC BY 4.0, Fonts: SIL OFL 1.1, Code: MIT License) --><path d="M392 448H56c-17.67 0-32 14.31-32 32s14.33 32 32 32h336c17.67 0 32-14.31 32-32S409.7 448 392 448zM224 416c24.51 0 47.21-7.273 66.7-19.27C295.6 408.1 306.9 416 320 416c17.67 0 32-14.31 32-32V128c17.67 0 32-14.31 32-32s-14.33-32-32-32c0-17.69-14.33-32-32-32s-32 14.31-32 32h-32c-17.67 0-32 14.31-32 32s14.33 32 32 32h32v49.8C269.1 166.8 247.4 160 224 160C153.4 160 96 217.4 96 288S153.4 416 224 416zM224 224c35.3 0 64 28.72 64 64s-28.7 64-64 64s-64-28.72-64-64S188.7 224 224 224z"/></svg>