<svg xmlns="http://www.w3.org/2000/svg" viewBox="0 0 512 512"><!--! Font Awesome Free 6.0.0-beta2 by @fontawesome - https://fontawesome.com License - https://fontawesome.com/license/free (Icons: CC BY 4.0, Fonts: SIL OFL 1.1, Code: MIT License) --><path d="M128.8 195.4L45.88 143.5c-8-5-19-2.125-22.88 6.5C10.12 178.1 2.5 208.4 .5 239.2C0 248.4 7.625 256 16.75 256h97.13c7.875 0 14-6.25 15-14.12c1-9.375 3.25-18.38 6.25-27C137.6 207.5 135.4 199.5 128.8 195.4zM319 8C298.9 2.875 277.8 0 256 0S213.1 2.875 193 8c-9.25 2.375-14 12.62-10.38 21.38L220 133.4C222.4 139.8 228.4 144 235.1 144h41.75c6.75 0 12.75-4.25 15.12-10.62l37.38-104C333 20.62 328.2 10.38 319 8zM112 288h-96C7.125 288 0 295.1 0 304v64C0 376.9 7.125 384 16 384h96C120.9 384 128 376.9 128 368v-64C128 295.1 120.9 288 112 288zM112 416h-96C7.125 416 0 423.1 0 432v64C0 504.9 7.125 512 16 512h96C120.9 512 128 504.9 128 496v-64C128 423.1 120.9 416 112 416zM189.2 132.4L153 41.5c-3.5-8.75-14.12-13-22.38-8.25C103.2 48.62 79 69 59 93.12C52.88 100.4 55.12 111.6 63.12 116.6l82.1 51.88c6.5 4 14.63 2.625 20.12-2.875c5.125-5.125 10.75-9.75 16.75-14C189.2 147.2 192.1 139.5 189.2 132.4zM398.1 256h97.13C504.4 256 512 248.4 511.5 239.2c-2-30.87-9.625-61.13-22.5-89.25c-3.875-8.625-14.88-11.5-22.88-6.5l-82.88 51.88c-6.625 4.125-8.875 12.12-6.375 19.5C380 223.5 382.1 232.5 383.1 241.9C384.1 249.8 390.2 256 398.1 256zM453 93.12c-20-24.12-44.25-44.5-71.63-59.88C373.1 28.5 362.5 32.75 359 41.5l-36.38 90.88C319.9 139.5 322.8 147.2 329 151.6c6 4.125 11.62 8.875 16.75 14c5.5 5.5 13.62 6.875 20.12 2.875l82.88-51.88C456.9 111.6 459.1 100.4 453 93.12zM496 288h-96C391.1 288 384 295.1 384 304v64c0 8.875 7.125 16 16 16h96c8.875 0 16-7.125 16-16v-64C512 295.1 504.9 288 496 288zM496 416h-96c-8.875 0-16 7.125-16 16v64c0 8.875 7.125 16 16 16h96c8.875 0 16-7.125 16-16v-64C512 423.1 504.9 416 496 416zM240 177.6V472C240 476.4 243.6 480 248 480h16c4.375 0 8-3.625 8-8V177.6C266.8 176.8 261.5 175.1 256 175.1S245.2 176.8 240 177.6zM176 219.1V472C176 476.4 179.6 480 184 480h16c4.375 0 8-3.625 8-8V189.4C195.2 196.8 184.1 206.9 176 219.1zM304 189.4V472c0 4.375 3.625 8 8 8h16c4.375 0 8-3.625 8-8V219.1C327.9 206.9 316.8 196.8 304 189.4z"/></svg>