<svg xmlns="http://www.w3.org/2000/svg" viewBox="0 0 576 512"><!--! Font Awesome Free 6.0.0-beta2 by @fontawesome - https://fontawesome.com License - https://fontawesome.com/license/free (Icons: CC BY 4.0, Fonts: SIL OFL 1.1, Code: MIT License) --><path d="M288 0C146.6 0 32 114.6 32 256s114.6 256 256 256s256-114.6 256-256S429.4 0 288 0zM370.1 289.5C371.6 288.5 373.1 288 374.8 288h12.11c3.148 0 6.055 2 7.387 5l5.328 12.75c.6055 1.5 2.059 2.5 3.633 2.5h3.875c1.695 0 3.27-1.125 3.754-2.875l4.238-14.5C415.6 289.3 417.2 288 419 288h6.055c2.18 0 3.996 1.75 3.996 4v13c0 2.125 .8477 4.125 2.301 5.625l11.87 11.88c3.027 3 4.723 7.125 4.723 11.38v24.5c0 1.793-.4531 3.52-1.021 5.195c-2.395 3.523-5.031 6.867-7.646 10.22l-5.5 5.461C430.8 382.3 426.7 384 422.4 384H407.3c-4.238 0-8.355-1.75-11.26-4.75l-13.08-13c-6.66-6.625-16.23-9.25-25.43-7l-21.19 5.375c-1.332 .25-2.664 .375-3.996 .375h-10.29c-4.238 0-8.355-1.625-11.26-4.625L298.8 348.5c-1.453-1.5-2.301-3.625-2.301-5.75v-10.12c0-3.25 1.938-6.25 5.086-7.5l39.23-15.75c2.059-.75 3.875-1.75 5.691-3L370.1 289.5zM288 48c18.66 0 36.66 2.699 53.88 7.328v.7344c0 9.945-4.623 19.32-12.51 25.38l-29.86 22.93c-5.086 3.375-4.723 11 .8477 13.75l10.78 5.5c5.449 2.625 8.84 8.25 8.84 14.25V216c0 4.375-3.512 8-7.992 8h-3.027c-3.027 0-5.812-1.75-7.145-4.375c-1.574-3.125-5.934-3.375-7.75-.375l-17.44 29C273.7 253 268.5 256 262.9 256H262.6C258.3 256 254.3 257.8 251.3 260.8L245.6 266.4c-3.027 3.125-3.027 8.125 0 11.25l5.691 5.75c3.027 3 4.723 7 4.723 11.25V304c0 8.875-7.145 16-15.98 16H233.9c-6.055 0-11.62-3.375-14.29-8.875L196.9 265.9C194.5 261 187.1 260 184.1 263.9L164.7 283.3C161.7 286.3 157.6 288 153.3 288H82.72C81.1 277.5 80 266.9 80 256C80 141.3 173.3 48 288 48z"/></svg>