<svg xmlns="http://www.w3.org/2000/svg" viewBox="0 0 576 512"><!--! Font Awesome Free 6.0.0-beta2 by @fontawesome - https://fontawesome.com License - https://fontawesome.com/license/free (Icons: CC BY 4.0, Fonts: SIL OFL 1.1, Code: MIT License) --><path d="M288 0C146.6 0 32 114.6 32 256s114.6 256 256 256s256-114.6 256-256S429.4 0 288 0zM490.2 208h-26.7c-8.477 0-15.5 7-15.5 15.5v6.875c0 5.875-3.27 11.25-8.477 13.88L424 252c-4.965 2.5-10.9 2.125-15.5-1l-18.16-12.12c-3.996-2.625-8.961-3.375-13.56-1.75L374.1 238c-9.688 3.125-13.56 14.75-7.992 23.25l13.32 19.88C382.2 285.4 387.1 288 392.3 288h8.234c8.598 0 15.5 7 15.5 15.5v11.38c0 3.375-1.09 6.625-3.148 9.25l-18.65 25c-1.453 1.875-2.422 4.125-2.906 6.375l-4.238 22.88c-.6055 3.25-2.301 6.25-4.844 8.625c-9.445 8.625-17.8 18.38-24.95 29.12l-13.08 19.5c-1.535 2.336-3.902 3.758-6.012 5.488c-8.477 2.305-17.16 4.074-26.06 5.199c-6.711-2.328-12.45-7.047-15.76-13.69c-5.449-10.88-8.355-23-8.355-35.25V367.5C288 359 281.1 352 272.5 352H246.6c-14.41 0-28.34-5.75-38.63-16C197.8 325.8 192 311.9 192 297.4V283.3c0-17.12 8.113-33.38 21.92-43.63l27.49-20.75C250.9 211.9 262.4 208 274.2 208h.8477c8.477 0 16.95 2 24.46 5.75l14.77 7.375C317.9 223 322.2 223.3 326.1 222l47.35-15.75c6.297-2.125 10.66-8.125 10.66-14.75c0-8.625-7.023-15.5-15.5-15.5h-10.17c-4.117 0-7.992-1.625-10.9-4.5l-6.902-7C337.7 161.6 333.7 160 329.6 160H239.5c-8.477 0-15.5-7-15.5-15.5V140.1c0-7.125 4.844-13.38 11.75-15.12l14.53-3.5c3.754-1 7.023-3.25 9.082-6.5l8.113-12.12C270.3 98.63 275.2 96 280.3 96h24.22c8.598 0 15.5-7 15.5-15.5V50.72C403.6 63.73 470.8 126.6 490.2 208z"/></svg>