<svg xmlns="http://www.w3.org/2000/svg" viewBox="0 0 576 512"><!--! Font Awesome Free 6.0.0-beta2 by @fontawesome - https://fontawesome.com License - https://fontawesome.com/license/free (Icons: CC BY 4.0, Fonts: SIL OFL 1.1, Code: MIT License) --><path d="M288 0C146.6 0 32 114.6 32 256s114.6 256 256 256s256-114.6 256-256S429.4 0 288 0zM496 256c0 22.34-3.633 43.82-10.18 64h-23.05c-4.359 0-8.477-1.625-11.38-4.742l-32.09-32.58c-4.48-4.617-4.48-12.11 .1211-16.73L431.9 253.5v-8.613c0-2.996-1.09-5.867-3.27-7.988l-9.324-9.363c-2.18-2.117-5.086-3.367-8.113-3.367h-15.98c-6.176 0-11.26-5.117-11.26-11.23c0-2.996 1.211-5.867 3.27-7.988l9.445-9.363c2.059-2.117 4.965-3.367 7.992-3.367h31.97c6.176 0 11.38-5.117 11.38-11.23V171.6c0-6.242-5.207-11.36-11.38-11.36h-36.69c-8.719 0-15.98 7.238-15.98 15.98v4.492c0 6.867-4.359 12.98-10.9 15.23l-31.61 10.48c-3.27 1.125-5.449 4.121-5.449 7.617v2.121c0 4.367-3.633 7.988-7.992 7.988h-16.11c-4.359 0-7.992-3.621-7.992-7.988c0-4.371-3.512-7.988-7.992-7.988h-3.027c-3.027 0-5.812 1.746-7.266 4.367l-9.324 18.72C273.5 236.6 268 239.1 261.1 239.1H239.8c-8.84 0-15.98-7.117-15.98-15.98V198.8c0-4.246 1.695-8.242 4.723-11.23l20.1-20.1C253.3 162.9 255.8 156.6 255.8 150c0-3.371 2.18-6.492 5.57-7.617l39.96-13.23c1.695-.625 3.148-1.5 4.359-2.75l26.88-26.71c2.059-2.117 3.27-4.992 3.27-7.984c0-6.242-5.086-11.36-11.26-11.36H303.9L287.8 96.33v7.988c0 4.367-3.512 7.988-7.992 7.988H263.8c-4.359 0-7.992-3.621-7.992-7.988V84.34c0-2.496 1.211-4.867 3.27-6.367l37.51-29.54C407.3 52.99 496 144.2 496 256zM170.1 149.1c0-3 1.211-5.875 3.391-8l25.31-25.38c2.18-2.125 5.086-3.375 7.992-3.375c6.297 0 11.38 5.125 11.38 11.38v16c0 3-1.211 5.875-3.27 8l-9.445 9.375C203.4 159.3 200.4 160.4 197.4 160.4H181.4C175.1 160.4 170.1 155.3 170.1 149.1zM304 463.2l-.1436-15.71c-.0977 .0039 .0977-.0078 0 0c-.4785-8.332-7.423-15.11-15.95-15.11h-20.22c-10.78 0-26.64-5.25-35.36-11.75L210.2 403.9C198.7 395.3 192 381.8 192 367.5v-23.88c0-16 8.355-30.88 22.04-39l42.87-25.75c7.145-4.125 15.26-6.5 23.49-6.5h31.12c10.9 0 21.43 3.875 29.67 10.88l43.11 37.13h18.29c8.598 0 16.71 3.375 22.64 9.375l17.32 17.38C445.5 350 449.4 351.6 453.6 352h18.78C439.9 413.1 377.2 457.6 304 463.2z"/></svg>