<svg xmlns="http://www.w3.org/2000/svg" viewBox="0 0 512 512"><!--! Font Awesome Free 6.0.0-beta2 by @fontawesome - https://fontawesome.com License - https://fontawesome.com/license/free (Icons: CC BY 4.0, Fonts: SIL OFL 1.1, Code: MIT License) --><path d="M64 192C28.61 192 0 220.6 0 256s28.61 64 64 64s64-28.62 64-64S99.39 192 64 192zM256 192C220.6 192 192 220.6 192 256s28.61 64 64 64s64-28.62 64-64S291.4 192 256 192zM448 192c-35.39 0-64 28.62-64 64s28.61 64 64 64s64-28.62 64-64S483.4 192 448 192z"/></svg>