<svg xmlns="http://www.w3.org/2000/svg" viewBox="0 0 128 512"><!--! Font Awesome Free 6.0.0-beta2 by @fontawesome - https://fontawesome.com License - https://fontawesome.com/license/free (Icons: CC BY 4.0, Fonts: SIL OFL 1.1, Code: MIT License) --><path d="M128 64c0-35.39-28.62-64-64-64S0 28.61 0 64s28.62 64 64 64S128 99.39 128 64zM128 256c0-35.39-28.62-64-64-64S0 220.6 0 256s28.62 64 64 64S128 291.4 128 256zM128 448c0-35.39-28.62-64-64-64s-64 28.61-64 64s28.62 64 64 64S128 483.4 128 448z"/></svg>