<svg xmlns="http://www.w3.org/2000/svg" viewBox="0 0 384 512"><!--! Font Awesome Free 6.0.0-beta2 by @fontawesome - https://fontawesome.com License - https://fontawesome.com/license/free (Icons: CC BY 4.0, Fonts: SIL OFL 1.1, Code: MIT License) --><path d="M351.2 436.2c3.984 17.22-6.75 34.41-23.97 38.41c-15.84 3.656-31.81 5.438-47.59 5.438c-56.84 0-111.7-23.22-152.8-66.19C104.9 391 88.89 364.4 78.49 336H48c-17.67 0-32-14.31-32-32S30.33 272 48 272h16.94c-.7285-10.66-.7266-21.34 0-32H48c-17.67 0-32-14.3-32-31.99S30.33 176 48 176h30.49c10.41-28.4 26.4-55.06 48.31-77.91c52.58-54.88 127.5-77.5 200.4-60.72c17.22 4 27.95 21.19 23.97 38.41c-3.969 17.22-21.12 27.97-38.38 23.97C262.1 88.09 209.8 104 173 142.4C163.2 152.6 155.6 164.1 149 176H272c17.67 0 31.1 14.32 31.1 32.01S289.7 240 272 240H129.4c-1.018 10.68-1.02 21.32 0 32H272c17.67 0 31.1 14.31 31.1 31.1S289.7 336 272 336H149c6.588 11.93 14.17 23.41 23.94 33.59c36.83 38.44 89.03 54.34 139.8 42.66C329.1 408.2 347.2 419 351.2 436.2z"/></svg>