<svg xmlns="http://www.w3.org/2000/svg" viewBox="0 0 512 512"><!--! Font Awesome Free 6.0.0-beta2 by @fontawesome - https://fontawesome.com License - https://fontawesome.com/license/free (Icons: CC BY 4.0, Fonts: SIL OFL 1.1, Code: MIT License) --><path d="M256 0C114.6 0 0 114.6 0 256s114.6 256 256 256s256-114.6 256-256S397.4 0 256 0zM175.1 240c-17.68 0-31.97-14.25-31.97-32s14.29-32 31.97-32c17.8 0 32.09 14.25 32.09 32S193.8 240 175.1 240zM336 240c-17.8 0-32.09-14.25-32.09-32s14.29-32 32.09-32c17.68 0 31.97 14.25 31.97 32S353.7 240 336 240z"/></svg>