<svg xmlns="http://www.w3.org/2000/svg" viewBox="0 0 512 512"><!--! Font Awesome Free 6.0.0-beta2 by @fontawesome - https://fontawesome.com License - https://fontawesome.com/license/free (Icons: CC BY 4.0, Fonts: SIL OFL 1.1, Code: MIT License) --><path d="M256 0C114.6 0 0 114.6 0 256s114.6 256 256 256s256-114.6 256-256S397.4 0 256 0zM143.1 208c0-17.75 14.29-32 31.97-32c17.8 0 32.09 14.25 32.09 32s-14.29 32-32.09 32C158.3 240 143.1 225.8 143.1 208zM256 416c-35.33 0-64.01-28.75-64.01-64S220.7 288 256 288s64.01 28.75 64.01 64S291.3 416 256 416zM336 240c-17.79 0-32.07-14.25-32.07-32s14.28-32 32.07-32c17.66 0 31.95 14.25 31.95 32S353.7 240 336 240z"/></svg>