<svg xmlns="http://www.w3.org/2000/svg" viewBox="0 0 512 512"><!--! Font Awesome Free 6.0.0-beta2 by @fontawesome - https://fontawesome.com License - https://fontawesome.com/license/free (Icons: CC BY 4.0, Fonts: SIL OFL 1.1, Code: MIT License) --><path d="M256 0C114.6 0 0 114.6 0 256s114.6 256 256 256s256-114.6 256-256S397.4 0 256 0zM336 176c17.68 0 31.97 14.25 31.97 32s-14.29 32-31.97 32c-17.8 0-32.09-14.25-32.09-32S318.2 176 336 176zM159.1 416c-26.52 0-47.95-21-47.95-47c0-20 28.46-60.38 41.54-77.75c3.27-4.375 9.688-4.375 12.84 0C179.5 308.6 208 349 208 369C208 395 186.5 416 159.1 416zM175.1 240c-17.68 0-31.97-14.25-31.97-32s14.29-32 31.97-32c17.8 0 32.09 14.25 32.09 32S193.8 240 175.1 240zM346.2 394.3C323.8 367.4 290.9 352 256 352c-21.19 0-21.19-32 0-32c44.44 0 86.34 19.62 114.7 53.75C384.5 390.3 359.5 410.3 346.2 394.3z"/></svg>