<svg xmlns="http://www.w3.org/2000/svg" viewBox="0 0 512 512"><!--! Font Awesome Free 6.0.0-beta2 by @fontawesome - https://fontawesome.com License - https://fontawesome.com/license/free (Icons: CC BY 4.0, Fonts: SIL OFL 1.1, Code: MIT License) --><path d="M256 0C114.6 0 0 114.6 0 256s114.6 256 256 256s256-114.6 256-256S397.4 0 256 0zM289.8 197.8l80.04-48c11.62-7 23.98 7.625 15.38 18L351.5 208l33.66 40.25c8.719 10.5-3.875 24.88-15.38 18l-80.04-48C282.2 213.6 282.2 202.4 289.8 197.8zM142.2 149.8l80.04 48c7.75 4.625 7.75 15.88 0 20.5l-80.04 48c-11.5 6.875-23.98-7.5-15.38-18L160.5 208l-33.66-40.25C118.2 157.4 130.5 142.8 142.2 149.8zM256 432c-60.55 0-134.5-38.25-143.9-93.25c-1.938-12 9.445-21.62 20.71-18C163.1 330.5 208 336 256 336s92.88-5.5 123.2-15.25c11.5-3.625 22.52 6.25 20.71 18C390.5 393.8 316.5 432 256 432z"/></svg>