<svg xmlns="http://www.w3.org/2000/svg" viewBox="0 0 512 512"><!--! Font Awesome Free 6.0.0-beta2 by @fontawesome - https://fontawesome.com License - https://fontawesome.com/license/free (Icons: CC BY 4.0, Fonts: SIL OFL 1.1, Code: MIT License) --><path d="M256 0C114.6 0 0 114.6 0 256s114.6 256 256 256s256-114.6 256-256S397.4 0 256 0zM151.1 400H143.1c-17.68 0-31.97-14.25-31.97-32v-8h39.96V400zM151.1 344H112V336c0-17.75 14.29-32 31.97-32h7.992V344zM143.1 208c0-17.75 14.28-32 31.95-32c17.79 0 32.07 14.25 32.07 32s-14.28 32-32.07 32C158.3 240 143.1 225.8 143.1 208zM216 400H167.1v-40h48.07V400zM216 344H167.1V304h48.06L216 344zM279.1 400H232v-40h47.95V400zM279.1 344H232V304h47.95V344zM344 400h-48.07v-40h48.07V400zM344 344h-48.07l.013-40h48.06V344zM336.1 240c-17.79 0-32.07-14.25-32.07-32s14.28-32 32.07-32c17.66 0 31.95 14.25 31.95 32S353.7 240 336.1 240zM399.1 368c0 17.75-14.29 32-31.97 32h-7.992v-40h39.96V368zM399.1 344h-39.96V304h7.992c17.68 0 31.97 14.25 31.97 32V344z"/></svg>