<svg xmlns="http://www.w3.org/2000/svg" viewBox="0 0 512 512"><!--! Font Awesome Free 6.0.0-beta2 by @fontawesome - https://fontawesome.com License - https://fontawesome.com/license/free (Icons: CC BY 4.0, Fonts: SIL OFL 1.1, Code: MIT License) --><path d="M464 160C419.9 160 384 124.6 384 81.02c0-10.76 3.953-24.12 11.44-39.6C355.3 15.27 307.5 .0002 256 .0002C114.6 .0002 0 114.6 0 256s114.6 255.1 256 255.1S512 397.4 512 256c0-35.89-7.445-70.02-20.78-101C482.7 158.1 473.6 160 464 160zM336 152c23.73 0 52.69 29.25 55.96 71.37C392.7 232 381.2 235.3 377 227.9l-9.446-17c-7.75-13.62-19.21-21.62-31.56-21.62c-12.23 0-23.73 8-31.48 21.62l-9.494 17c-4.117 7.375-15.67 3.95-14.94-4.55C283.1 181.3 312.2 152 336 152zM175.1 152c23.86 0 52.79 29.25 56.06 71.38C232.8 232 221.2 235.3 217.1 227.9l-9.566-17C199.9 197.3 188.4 189.3 176 189.3c-12.23 0-23.73 8-31.48 21.62l-9.445 17C130.9 235.3 119.4 231.9 120.2 223.4C123.2 181.3 152.2 152 175.1 152zM256 432c-60.55 0-134.5-38.24-143.8-93.24c-1.938-12 9.441-21.62 20.7-17.1c30.27 9.75 75.17 15.25 123.1 15.25s92.85-5.499 123.1-15.25c11.38-3.625 22.52 6.124 20.7 17.1C390.5 393.8 316.5 432 256 432zM464 128c26.46 0 48-20.1 48-46.99c0-19.1-28.55-60.36-41.6-77.73c-3.199-4.375-9.598-4.375-12.8 .0003C444.4 20.65 416 61.01 416 81.01C416 107 437.5 128 464 128z"/></svg>