<svg xmlns="http://www.w3.org/2000/svg" viewBox="0 0 512 512"><!--! Font Awesome Free 6.0.0-beta2 by @fontawesome - https://fontawesome.com License - https://fontawesome.com/license/free (Icons: CC BY 4.0, Fonts: SIL OFL 1.1, Code: MIT License) --><path d="M256 0C114.6 0 0 114.6 0 256s114.6 256 256 256s256-114.6 256-256S397.4 0 256 0zM120 223.4C123.3 181.3 152.2 152 175.1 152c23.86 0 52.79 29.25 56.06 71.38C232.8 232 221.2 235.3 217.1 227.9l-9.566-17C199.9 197.3 188.4 189.3 176 189.3c-12.23 0-23.73 8-31.48 21.62l-9.445 17C130.7 235.3 119.3 231.9 120 223.4zM370.8 346.3C342.3 380.4 300.4 399.1 256 399.1s-86.3-19.6-114.8-53.73c-13.56-16.38 10.98-36.75 24.54-20.5C188.2 352.6 221 367.9 256 367.9s67.81-15.42 90.21-42.17C359.8 309.5 384.4 330 370.8 346.3zM376.1 227.9l-9.445-17c-7.75-13.62-19.25-21.62-31.48-21.62c-12.35 0-23.86 8-31.48 21.62l-9.566 17c-4.117 7.375-15.67 3.95-14.94-4.55C283.3 181.3 312.3 152 336 152c23.86 0 52.76 29.25 56.03 71.38C392.7 232 381.1 235.3 376.1 227.9z"/></svg>