<svg xmlns="http://www.w3.org/2000/svg" viewBox="0 0 512 512"><!--! Font Awesome Free 6.0.0-beta2 by @fontawesome - https://fontawesome.com License - https://fontawesome.com/license/free (Icons: CC BY 4.0, Fonts: SIL OFL 1.1, Code: MIT License) --><path d="M256 0C114.6 0 0 114.6 0 256s114.6 256 256 256s256-114.6 256-256S397.4 0 256 0zM175.9 240c-17.68 0-31.97-14.25-31.97-32s14.29-32 31.97-32c17.8 0 32.09 14.25 32.09 32S193.7 240 175.9 240zM311.9 388.1c0 19.19-28.7 41.38-71.45 43.87c-8.477 .748-12.11-11.71-3.633-15.33l17.07-7.229c12.96-5.484 20.71-13.46 20.71-21.44c0-7.975-7.75-15.95-20.71-21.44l-17.07-7.104c-5.934-2.492-6.055-12.21 0-14.83l17.07-7.105c12.96-5.482 20.71-13.46 20.71-21.44S266.9 300.1 253.9 294.6L236.9 287.4C228.3 283.8 232.1 270.9 240.5 272.1c42.75 2.492 71.45 24.68 71.45 43.87c0 12.96-13.32 27.17-35.12 35.89C298.6 360.9 311.9 375.1 311.9 388.1zM336.1 240c-17.79 0-32.07-14.25-32.07-32s14.28-32 32.07-32c17.66 0 31.95 14.25 31.95 32S353.7 240 336.1 240z"/></svg>