<svg xmlns="http://www.w3.org/2000/svg" viewBox="0 0 512 512"><!--! Font Awesome Free 6.0.0-beta2 by @fontawesome - https://fontawesome.com License - https://fontawesome.com/license/free (Icons: CC BY 4.0, Fonts: SIL OFL 1.1, Code: MIT License) --><path d="M256 0C114.6 0 0 114.6 0 256s114.6 256 256 256s256-114.6 256-256S397.4 0 256 0zM336 152c23.73 0 52.68 29.25 55.95 71.38C392.7 232 381.2 235.3 377 227.9l-9.445-17c-7.75-13.62-19.21-21.62-31.56-21.62c-12.23 0-23.73 8-31.48 21.62l-9.494 17c-4.117 7.375-15.67 3.95-14.94-4.55C283.1 181.3 312.2 152 336 152zM175.1 152c23.86 0 52.79 29.25 56.06 71.38C232.8 232 221.2 235.3 217.1 227.9l-9.566-17C199.9 197.3 188.4 189.3 176 189.3c-12.23 0-23.73 8-31.48 21.62l-9.445 17C130.9 235.3 119.4 231.9 120.2 223.4C123.2 181.3 152.2 152 175.1 152zM256 432c-60.55 0-134.5-38.24-143.8-93.24c-1.938-12 9.442-21.62 20.7-17.1c30.27 9.75 75.18 15.25 123.1 15.25s92.86-5.499 123.1-15.25c11.38-3.625 22.52 6.124 20.7 17.1C390.5 393.8 316.6 432 256 432z"/></svg>