<svg xmlns="http://www.w3.org/2000/svg" viewBox="0 0 512 512"><!--! Font Awesome Free 6.0.0-beta2 by @fontawesome - https://fontawesome.com License - https://fontawesome.com/license/free (Icons: CC BY 4.0, Fonts: SIL OFL 1.1, Code: MIT License) --><path d="M256 0C114.6 0 0 114.6 0 256s114.6 256 256 256s256-114.6 256-256S397.4 0 256 0zM216.1 227.9l-9.518-17C199.8 197.3 188.3 189.3 175.1 189.3c-12.23 0-23.78 8-31.53 21.62l-9.445 17C130.7 235.3 119.4 231.9 120.1 223.4C123.4 181.3 152.3 152 176 152c23.86 0 52.73 29.25 56.12 71.38C232.6 231.9 221.2 235.4 216.1 227.9zM311.9 388.1c0 19.19-28.7 41.38-71.45 43.87c-8.477 .7461-12.11-11.72-3.633-15.33l17.07-7.23c12.96-5.484 20.71-13.46 20.71-21.44c0-7.973-7.75-15.95-20.71-21.43l-17.07-7.105c-5.934-2.492-6.055-12.21 0-14.83l17.07-7.102c12.96-5.484 20.71-13.46 20.71-21.44S266.9 300.1 253.9 294.6L236.9 287.4C228.3 283.8 232.1 270.9 240.5 272.1c42.75 2.492 71.45 24.68 71.45 43.87c0 12.96-13.32 27.17-35.12 35.89C298.6 360.9 311.9 375.1 311.9 388.1zM376.9 227.9l-9.445-17c-7.75-13.62-19.25-21.62-31.48-21.62c-12.35 0-23.86 8-31.48 21.62l-9.566 17c-4.117 7.375-15.62 3.95-14.89-4.55C283.3 181.3 312.3 152 336 152c23.86 0 52.8 29.25 56.07 71.38C392.6 231.9 381.2 235.4 376.9 227.9z"/></svg>