<svg xmlns="http://www.w3.org/2000/svg" viewBox="0 0 512 512"><!--! Font Awesome Free 6.0.0-beta2 by @fontawesome - https://fontawesome.com License - https://fontawesome.com/license/free (Icons: CC BY 4.0, Fonts: SIL OFL 1.1, Code: MIT License) --><path d="M159.1 200C146.7 200 136 210.8 136 224s10.66 24 23.98 24S183.1 237.3 183.1 224S173.3 200 159.1 200zM352 200c-13.32 0-23.98 10.75-23.98 24s10.66 24 23.98 24S375.1 237.3 375.1 224S365.3 200 352 200zM256 0C114.6 0 0 114.6 0 256s114.6 256 256 256s256-114.6 256-256S397.4 0 256 0zM88.01 224c0-39.75 32.25-72 71.97-72c39.84 0 72.02 32.25 72.02 72S199.8 296 159.1 296C120.3 296 88.01 263.8 88.01 224zM320.1 400H191.9c-21.19 0-21.19-32 .0015-32h128.1C341.2 368 341.3 400 320.1 400zM352 296c-39.84 0-72.05-32.25-72.05-72s32.21-72 72.05-72c39.72 0 71.93 32.25 71.93 72S391.8 296 352 296z"/></svg>