<svg xmlns="http://www.w3.org/2000/svg" viewBox="0 0 512 512"><!--! Font Awesome Free 6.0.0-beta2 by @fontawesome - https://fontawesome.com License - https://fontawesome.com/license/free (Icons: CC BY 4.0, Fonts: SIL OFL 1.1, Code: MIT License) --><path d="M256 0C114.6 0 0 114.6 0 256s114.6 256 256 256s256-114.6 256-256S397.4 0 256 0zM126.8 248.3L160.5 208l-33.66-40.25c-8.598-10.38 3.754-25 15.38-18l80.04 48c7.75 4.625 7.75 15.88 0 20.5l-80.04 48C130.7 273.1 118.2 258.8 126.8 248.3zM361.5 415.1C335.6 404 297.1 397.8 256 397.8S176.4 404 150.5 415.1c-9.809 4.125-19.38-7-17.68-20.38C140.7 331.8 204.1 288 256 288s115.3 43.75 123.1 106.8C380.8 408.3 371.2 419.3 361.5 415.1zM369.8 266.3l-80.04-48c-7.629-4.625-7.629-15.88 0-20.5l80.04-48c11.62-7 23.98 7.625 15.38 18L351.5 208l33.66 40.25C393.9 258.8 381.3 273.1 369.8 266.3z"/></svg>