<svg xmlns="http://www.w3.org/2000/svg" viewBox="0 0 512 512"><!--! Font Awesome Free 6.0.0-beta2 by @fontawesome - https://fontawesome.com License - https://fontawesome.com/license/free (Icons: CC BY 4.0, Fonts: SIL OFL 1.1, Code: MIT License) --><path d="M476.5 126.5c-16.07 4.869-35.06 9.051-58.13 12.22l-2.156 .2969l-3.469 .0938c-11.62 0-22.66-5.062-30.25-13.88c-7.562-8.828-10.91-20.52-9.156-32.06c3.572-25.1 7.795-43.46 12.07-57.74C347.4 13.05 303.3 0 256 0C114.6 0 0 114.6 0 256c0 47.33 13.07 91.5 35.46 129.5c16.07-4.869 35.06-9.051 58.13-12.22l2.156-.2969l3.438-.0938c11.66 0 22.69 5.062 30.28 13.89c7.562 8.828 10.94 20.52 9.156 32.06c-3.57 25.09-7.793 43.45-12.06 57.72C164.6 498.1 208.7 512 256 512c141.4 0 256-114.6 256-256C512 208.7 498.9 164.5 476.5 126.5zM261.4 100.4c3.27-13.17 22.34-11.56 23.6 1.852l4.656 52.27l52.27 4.656c13.59 1.258 14.85 20.33 1.852 23.6L253.2 205.4c-8.664 2.125-16.62-5.828-14.49-14.49L261.4 100.4zM182.8 343.7c-3.273 13-22.26 11.65-23.6-1.852L154.5 289.6L102.2 284.1c-13.41-1.258-15.02-20.33-1.852-23.6l90.54-22.66C199.7 236.5 207.6 244.4 205.4 253.2L182.8 343.7zM380.5 380.5c-42.82 42.81-122.2 68.09-167.7 35.79c-9.855-7.113-8.609-21.97 1.914-27.37c28.3-14.52 63.98-42.41 97.89-76.31c33.91-33.91 61.8-69.59 76.31-97.89c5.57-10.7 20.35-11.51 27.37-1.915C448.6 258.3 423.3 337.7 380.5 380.5zM97.94 405c-21.6 2.969-70.24 11.41-84.38 25.55c-18.38 18.38-17.1 48.46 .7148 67.17s48.79 19.09 67.17 .7148c14.14-14.14 22.49-62.88 25.55-84.38C107.8 408.7 103.3 404.2 97.94 405zM414.1 106.1c21.6-2.969 70.24-11.41 84.38-25.55c18.38-18.38 17.1-48.46-.7148-67.17s-48.79-19.1-67.17-.7148c-14.14 14.14-22.49 62.88-25.55 84.38C404.2 103.3 408.7 107.8 414.1 106.1z"/></svg>