<svg xmlns="http://www.w3.org/2000/svg" viewBox="0 0 512 512"><!--! Font Awesome Free 6.0.0-beta2 by @fontawesome - https://fontawesome.com License - https://fontawesome.com/license/free (Icons: CC BY 4.0, Fonts: SIL OFL 1.1, Code: MIT License) --><path d="M256 0C114.6 0 0 114.6 0 256s114.6 256 256 256s256-114.6 256-256S397.4 0 256 0zM336 176c17.68 0 31.97 14.25 31.97 32s-14.29 32-31.97 32c-17.8 0-32.09-14.25-32.09-32S318.2 176 336 176zM175.1 176c17.8 0 32.09 14.25 32.09 32s-14.29 32-32.09 32c-17.68 0-31.97-14.25-31.97-32S158.3 176 175.1 176zM256 432c-60.55 0-134.5-38.25-143.9-93.25c-1.938-11.88 9.324-21.62 20.71-18C163.1 330.5 208 336 256 336s92.88-5.5 123.2-15.25c11.26-3.625 22.52 6.125 20.71 18C390.5 393.8 316.5 432 256 432z"/></svg>