<svg xmlns="http://www.w3.org/2000/svg" viewBox="0 0 640 512"><!--! Font Awesome Free 6.0.0-beta2 by @fontawesome - https://fontawesome.com License - https://fontawesome.com/license/free (Icons: CC BY 4.0, Fonts: SIL OFL 1.1, Code: MIT License) --><path d="M501.3 258.5c-1.75-11.05 1.562-22.77 9.125-31.64c7.594-8.875 18.66-13.97 30.34-13.97h2.438l3.719 .4687c9.42 1.295 17.62 2.906 25.89 4.498C554.4 94.63 448.4 0 320 0C191.6 0 85.58 94.63 67.14 217.9C75.57 216.3 83.95 214.6 93.59 213.3l2.156-.2969l3.438-.0938c11.69 0 22.75 5.094 30.34 13.97c7.562 8.875 10.88 20.59 9.031 32.16c-11.06 78.56-28.69 96.22-34.5 102c-3.836 3.84-8.033 7.184-12.47 10.1C133.8 454.6 220.1 512 320 512c99.91 0 186.2-57.36 228.4-140.8c-4.438-2.916-8.631-6.254-12.47-10.09C530.1 355.3 512.5 337.6 501.3 258.5zM400 152c23.73 0 52.7 29.25 55.97 71.38C456.7 232 445.2 235.3 441.1 227.9l-9.457-17c-7.75-13.62-19.21-21.62-31.56-21.62c-12.23 0-23.74 8-31.49 21.62l-9.481 17c-4.117 7.375-15.67 3.95-14.94-4.55C347.2 181.3 376.2 152 400 152zM239.1 152c23.86 0 52.78 29.25 56.05 71.38C296.7 232 285.2 235.3 281.1 227.9l-9.554-17C263.9 197.3 252.4 189.3 240 189.3c-12.23 0-23.74 8-31.49 21.62l-9.457 17C194.8 235.3 183.4 231.9 184.1 223.4C187.2 181.3 216.2 152 239.1 152zM320 432c-60.55 0-134.5-38.24-143.8-93.24c-1.938-12 9.442-21.62 20.7-17.1c30.27 9.75 75.18 15.25 123.1 15.25s92.86-5.499 123.1-15.25c11.38-3.625 22.52 6.124 20.7 17.1C454.5 393.8 380.6 432 320 432zM97.94 245C76.34 247.1 27.69 256.4 13.55 270.6c-18.38 18.38-17.1 48.46 .7148 67.17s48.79 19.09 67.17 .7148c14.14-14.14 22.49-62.88 25.55-84.38C107.8 248.7 103.3 244.2 97.94 245zM626.4 270.6c-14.14-14.14-62.79-22.58-84.38-25.55c-5.355-.8281-9.879 3.695-9.047 9.047c3.055 21.51 11.41 70.24 25.55 84.38c18.38 18.38 48.46 17.1 67.17-.7148S644.8 288.9 626.4 270.6z"/></svg>