<svg xmlns="http://www.w3.org/2000/svg" viewBox="0 0 512 512"><!--! Font Awesome Free 6.0.0-beta2 by @fontawesome - https://fontawesome.com License - https://fontawesome.com/license/free (Icons: CC BY 4.0, Fonts: SIL OFL 1.1, Code: MIT License) --><path d="M256 0C114.6 0 0 114.6 0 256c0 112.8 73.08 208.4 174.4 242.5C165.4 484.1 160 467.2 160 449.1V407.6c0-1.578 .5508-3.037 .668-4.596c-25.04-16.24-44.12-38.28-48.53-64.26c-1.938-12 9.445-21.62 20.71-18C163.1 330.5 208 336 256 336s92.88-5.5 123.2-15.25c11.38-3.625 22.52 6.125 20.71 18c-4.406 25.99-23.49 48.03-48.54 64.27C351.4 404.6 352 406 352 407.6V450c0 17.38-5.1 33.87-14.06 48.36C439.1 464.2 512 368.7 512 256C512 114.6 397.4 0 256 0zM216 233L206.5 224.5c-14.77-13.25-46.14-13.25-61.03 0L135.1 233c-8.477 7.375-21.55 .25-19.98-10.75C120 197 150.2 180.1 175.1 180.1c25.67 0 55.82 16.88 59.82 42.13C237.6 233.4 224.3 240.4 216 233zM336.1 272C300.6 272 272 243.5 272 208s28.55-64 64.12-64C371.4 144 400 172.5 400 208S371.4 272 336.1 272zM336 184c-13.34 0-24.04 10.69-24.04 24s10.7 24 24.04 24c13.25 0 23.97-10.69 23.97-24S349.3 184 336 184zM301.6 379.3c-.2988-.1328-.375-.1562-.5859-.2422c-14.29-6.297-31 2.055-34.51 17.07l-1.816 7.508c-2.059 8.961-15.26 8.961-17.32 0l-1.816-7.508c-3.512-15.02-20.22-23.37-34.63-17.07c-.2715 .1133-.3301 .1328-.9199 .4062C199 384.6 192 395.5 192 407.6v41.54c0 34.15 28.12 62.48 63.11 62.84C290.8 512.5 320 484.5 320 449.1v-42.35C320 395.4 312.8 384.1 301.6 379.3z"/></svg>