<svg xmlns="http://www.w3.org/2000/svg" viewBox="0 0 512 512"><!--! Font Awesome Free 6.0.0-beta2 by @fontawesome - https://fontawesome.com License - https://fontawesome.com/license/free (Icons: CC BY 4.0, Fonts: SIL OFL 1.1, Code: MIT License) --><path d="M256 0C114.6 0 0 114.6 0 256s114.6 256 256 256s256-114.6 256-256S397.4 0 256 0zM143.1 240c0-9.25 4.117-17.53 10.54-23.41L123.5 207.3c-8.477-2.5-13.31-11.51-10.76-19.89c2.543-8.5 11.49-13.15 19.96-10.65l79.94 24c8.598 2.5 13.31 11.51 10.76 19.89C221.2 227.5 214.9 232 208 232c-.4844 0-1.078-.25-1.684-.25C207.1 234.5 208 237.1 208 240c0 17.75-14.32 32.03-31.1 32.03S143.1 257.8 143.1 240zM311.9 394.3c-27.73-33.5-84.16-33.5-112 0C186.4 410.5 161.7 390 175.4 373.8c19.98-24 49.45-37.83 80.57-37.83c31.24 0 60.63 13.83 80.61 37.83C350.3 390.3 325.4 410.3 311.9 394.3zM388.6 207.3l-30.1 9.355C363.9 222.4 368.1 230.8 368.1 240c0 17.75-14.26 32-32.06 32c-17.68 0-31.1-14.25-31.1-32c0-2.875 .999-5.625 1.726-8.25C305.2 231.9 304.7 232 304.1 232c-6.902 0-13.21-4.508-15.27-11.38c-2.543-8.5 2.316-17.39 10.67-19.89l80.03-24c8.355-2.5 17.45 2.277 19.87 10.65C401.9 195.9 397.1 204.8 388.6 207.3z"/></svg>