<svg xmlns="http://www.w3.org/2000/svg" viewBox="0 0 512 512"><!--! Font Awesome Free 6.0.0-beta2 by @fontawesome - https://fontawesome.com License - https://fontawesome.com/license/free (Icons: CC BY 4.0, Fonts: SIL OFL 1.1, Code: MIT License) --><path d="M256 0C114.6 0 0 114.6 0 256s114.6 256 256 256s256-114.6 256-256S397.4 0 256 0zM96.03 224c0-24.25 13.7-45.25 33.56-56C128.9 170.6 128 173.3 128 176c0 17.75 14.3 32 31.98 32s31.97-14.25 31.97-32c0-2.75-.8613-5.375-1.588-8C210.4 178.8 224 199.8 224 224c0 35.25-28.68 64-64.04 64C124.7 288 96.03 259.3 96.03 224zM320.1 400H191.9c-21.19 0-21.19-32 0-32h128.1C341.3 368 341.3 400 320.1 400zM352 288c-35.36 0-64.04-28.75-64.04-64c0-24.25 13.67-45.25 33.65-56c-.7266 2.625-1.588 5.25-1.588 8c0 17.75 14.29 32 31.97 32s31.98-14.25 31.98-32c0-2.75-.8613-5.375-1.588-8C402.3 178.8 415.1 199.8 415.1 224C415.1 259.3 387.3 288 352 288z"/></svg>