<svg xmlns="http://www.w3.org/2000/svg" viewBox="0 0 512 512"><!--! Font Awesome Free 6.0.0-beta2 by @fontawesome - https://fontawesome.com License - https://fontawesome.com/license/free (Icons: CC BY 4.0, Fonts: SIL OFL 1.1, Code: MIT License) --><path d="M256 0C114.6 0 0 114.6 0 256s114.6 256 256 256s256-114.6 256-256S397.4 0 256 0zM102.6 168.9l34.88-5l15.5-31.62c2.906-5.75 11.02-5.75 13.93 0l15.5 31.62l34.88 5c6.297 1 8.961 8.625 4.359 13.25L196.2 206.8l6.055 34.88c.9687 6.125-5.328 11-11.02 7.875L159.1 233.3L128.7 249.6C123 252.8 116.7 247.9 117.7 241.8l5.934-35L98.34 182.3C93.73 177.5 96.4 169.9 102.6 168.9zM256 432c-60.55 0-134.5-38.25-143.8-93.25c-1.938-11.88 9.322-21.5 20.7-17.1C163.1 330.5 208 336 256 336s92.86-5.499 123.1-15.25c11.5-3.625 22.52 6.124 20.7 17.1C390.5 393.8 316.5 432 256 432zM413.7 182.1l-25.31 24.62l5.934 34.88c.9687 6.125-5.328 11-11.02 7.875l-31.24-16.25l-31.36 16.38c-5.691 3.125-11.99-1.75-11.02-7.875l6.055-35l-25.43-24.5C285.8 177.6 288.5 170 294.6 169L329.5 164l15.5-31.62c2.906-5.75 11.02-5.75 13.93 0L374.4 164l34.88 5C415.6 169.9 418.3 177.5 413.7 182.1z"/></svg>