<svg xmlns="http://www.w3.org/2000/svg" viewBox="0 0 512 512"><!--! Font Awesome Free 6.0.0-beta2 by @fontawesome - https://fontawesome.com License - https://fontawesome.com/license/free (Icons: CC BY 4.0, Fonts: SIL OFL 1.1, Code: MIT License) --><path d="M256 0C114.6 0 0 114.6 0 256c0 112.8 73.08 208.4 174.4 242.5C165.4 484.1 160 467.2 160 449.1V407.6c0-1.578 .5508-3.037 .668-4.596c-25.04-16.24-44.12-38.28-48.53-64.26c-1.938-12 9.445-21.62 20.71-18C163.1 330.5 208 336 256 336s92.88-5.5 123.2-15.25c11.38-3.625 22.52 6.125 20.71 18c-4.406 25.99-23.49 48.03-48.54 64.27C351.4 404.6 352 406 352 407.6V450c0 17.38-5.1 33.87-14.06 48.36C439.1 464.2 512 368.7 512 256C512 114.6 397.4 0 256 0zM222.2 218.3l-80.04 48c-11.5 6.875-23.98-7.5-15.38-18L160.5 208l-33.66-40.25c-8.598-10.38 3.754-25 15.38-18l80.04 48C229.1 202.4 229.1 213.6 222.2 218.3zM369.8 266.3l-80.04-48c-7.629-4.625-7.629-15.88 0-20.5l80.04-48c11.62-7 23.98 7.625 15.38 18L351.5 208l33.66 40.25C393.9 258.8 381.3 273.1 369.8 266.3zM301.6 379.3c-.2988-.1328-.375-.1562-.5859-.2422c-14.29-6.297-31 2.055-34.51 17.07l-1.816 7.508c-2.059 8.961-15.26 8.961-17.32 0l-1.816-7.508c-3.512-15.02-20.22-23.37-34.63-17.07c-.2715 .1133-.3301 .1328-.9199 .4062C199 384.6 192 395.5 192 407.6v41.54c0 34.15 28.12 62.48 63.11 62.84C290.8 512.5 320 484.5 320 449.1v-42.35C320 395.4 312.8 384.1 301.6 379.3z"/></svg>