<svg xmlns="http://www.w3.org/2000/svg" viewBox="0 0 384 512"><!--! Font Awesome Free 6.0.0-beta2 by @fontawesome - https://fontawesome.com License - https://fontawesome.com/license/free (Icons: CC BY 4.0, Fonts: SIL OFL 1.1, Code: MIT License) --><path d="M384 64c0 17.69-14.33 32-32 32h-36.86c-15.3 0-28.81 8.188-33.63 20.38L239 224H320c17.67 0 32 14.31 32 32s-14.33 32-32 32h-106.2l-51.76 131.1C147.6 455.5 110.2 480 68.86 480H32c-17.67 0-32-14.31-32-32s14.33-32 32-32h36.86c15.3 0 28.81-8.188 33.63-20.38L144.1 288H64C46.33 288 32 273.7 32 256s14.33-32 32-32h106.2l51.76-131.1C236.4 56.47 273.8 32 315.1 32H352C369.7 32 384 46.31 384 64z"/></svg>