<svg xmlns="http://www.w3.org/2000/svg" viewBox="0 0 320 512"><!--! Font Awesome Free 6.0.0-beta2 by @fontawesome - https://fontawesome.com License - https://fontawesome.com/license/free (Icons: CC BY 4.0, Fonts: SIL OFL 1.1, Code: MIT License) --><path d="M320 64c0 17.67-14.31 32-32 32H112v96H256c17.69 0 32 14.33 32 32s-14.31 32-32 32H112v64H192c17.69 0 32 14.33 32 32s-14.31 32-32 32H112v64c0 17.67-14.31 32-32 32s-32-14.33-32-32v-64H32c-17.69 0-32-14.33-32-32s14.31-32 32-32h16V64c0-17.67 14.31-32 32-32H288C305.7 32 320 46.33 320 64z"/></svg>