<svg xmlns="http://www.w3.org/2000/svg" viewBox="0 0 576 512"><!--! Font Awesome Free 6.0.0-beta2 by @fontawesome - https://fontawesome.com License - https://fontawesome.com/license/free (Icons: CC BY 4.0, Fonts: SIL OFL 1.1, Code: MIT License) --><path d="M288 32c-159 0-288 129-288 288c0 52.75 14.25 102.3 39 144.8c5.625 9.625 16.38 15.25 27.5 15.25h443c11.12 0 21.88-5.625 27.5-15.25C561.8 422.3 576 372.8 576 320C576 161 447 32 288 32zM451.2 206.4l-108.6 144.8C348.5 360.8 352 371.9 352 384c0 11.75-3.375 22.5-8.875 32H232.9C227.4 406.5 224 395.8 224 384c0-35.38 28.62-64 64-64c5.625 0 11 1 16.25 2.375l108.5-144.8c8-10.62 23-12.75 33.62-4.875C457 180.8 459.1 195.8 451.2 206.4z"/></svg>