<svg xmlns="http://www.w3.org/2000/svg" viewBox="0 0 640 512"><!--! Font Awesome Free 6.0.0-beta2 by @fontawesome - https://fontawesome.com License - https://fontawesome.com/license/free (Icons: CC BY 4.0, Fonts: SIL OFL 1.1, Code: MIT License) --><path d="M608 224h-20.42c2.625-7.625 4.424-15.49 4.424-23.74c0-35.5-27-72.25-72.13-72.25c-48.13 0-75.87 47.8-87.87 75.3c-12.12-27.5-39.88-75.3-87.88-75.3c-45.13 0-72.13 36.75-72.13 72.25c0 8.25 1.799 16.12 4.424 23.74H256c-17.75 0-31.1 14.25-31.1 32l-.0001 96l192-.0039V256h32v96l192 .0039l.0001-96C640 238.3 625.8 224 608 224zM335.1 224c-15.26-7.633-15.99-19.94-15.99-23.74c0-9.75 6.375-24.25 24.12-24.25c18.62 0 35.62 27.37 44.5 47.99H335.1zM528 224h-52.63c8.875-20.25 25.87-47.99 44.5-47.99c17.75 0 24.12 14.5 24.12 24.25C544 204.1 543.3 216.4 528 224zM240.6 194.1c1.875-30.88 17.25-61.25 43.1-79.87C279.4 103.5 268.8 96.01 256 96.01H226.6l30.61-21.99c7.25-5.125 9-15.12 3.75-22.25l-9.25-13c-5.125-7.25-15.12-9-22.38-3.75l-32 22.88l11.5-30.62C212 19.02 207.8 9.777 199.5 6.777l-15-5.625C176.3-1.973 167 2.277 163.9 10.53L144 63.52l-19.88-53.12c-3.125-8.25-12.38-12.5-20.62-9.375l-15 5.625C80.25 9.777 76 19.02 79.25 27.27l11.5 30.5L58.63 35.02c-7.25-5.125-17.25-3.5-22.38 3.75l-9.25 13c-5.125 7.125-3.5 17.12 3.75 22.25l30.61 21.99h-29.36c-17.75 0-32 14.25-32 31.1v351.1c0 17.75 14.25 32 32 32h168.9c-5.5-9.5-8.875-20.25-8.875-32V256C192 226.1 212.8 201 240.6 194.1zM224 480c0 17.75 14.25 32 31.1 32H416v-127.1l-192 .0039L224 480zM448 512h160c17.75 0 32-14.25 32-32L640 384l-192-.0039V512z"/></svg>