<svg xmlns="http://www.w3.org/2000/svg" viewBox="0 0 320 512"><!--! Font Awesome Free 6.0.0-beta2 by @fontawesome - https://fontawesome.com License - https://fontawesome.com/license/free (Icons: CC BY 4.0, Fonts: SIL OFL 1.1, Code: MIT License) --><path d="M96 32H32c-17.62 0-32 14.38-32 32v64c0 17.62 14.38 32 32 32h64c17.62 0 32-14.38 32-32V64C128 46.38 113.6 32 96 32zM96 192H32c-17.62 0-32 14.38-32 32v64c0 17.62 14.38 32 32 32h64c17.62 0 32-14.38 32-32V224C128 206.4 113.6 192 96 192zM96 352H32c-17.62 0-32 14.38-32 32v64c0 17.62 14.38 32 32 32h64c17.62 0 32-14.38 32-32v-64C128 366.4 113.6 352 96 352zM288 32h-64c-17.62 0-32 14.38-32 32v64c0 17.62 14.38 32 32 32h64c17.62 0 32-14.38 32-32V64C320 46.38 305.6 32 288 32zM288 192h-64c-17.62 0-32 14.38-32 32v64c0 17.62 14.38 32 32 32h64c17.62 0 32-14.38 32-32V224C320 206.4 305.6 192 288 192zM288 352h-64c-17.62 0-32 14.38-32 32v64c0 17.62 14.38 32 32 32h64c17.62 0 32-14.38 32-32v-64C320 366.4 305.6 352 288 352z"/></svg>