<svg xmlns="http://www.w3.org/2000/svg" viewBox="0 0 384 512"><!--! Font Awesome Free 6.0.0-beta2 by @fontawesome - https://fontawesome.com License - https://fontawesome.com/license/free (Icons: CC BY 4.0, Fonts: SIL OFL 1.1, Code: MIT License) --><path d="M368 322.7l-.3438-66.88C367.6 238.2 353.3 224 335.7 224H224V128.8c23.52 2.779 46.58 11.9 66.41 28c13.75 11.11 33.88 8.984 45-4.703c11.16-13.72 9.031-33.88-4.688-45.02C298.1 81.33 261.7 67.54 224 64.56V32c0-17.67-14.24-32-31.93-32S160 14.33 160 32v38.25C123.4 79.84 89.16 99.98 62.37 130.9c-61.94 71.34-61.94 178.9 0 250.3C89.15 411.1 123.4 432.2 160 441.7V480c0 17.67 14.38 32 32.07 32S224 497.7 224 480v-33.13c38.01-3.096 75.69-16.82 108-43.05C354.9 383.1 368 353.6 368 322.7zM110.7 339.2c-41.16-47.44-41.16-119 0-166.4C124.6 156.8 141.7 145.5 160 137.9v236.1C141.7 366.5 124.6 355.3 110.7 339.2zM290.4 355.2C270.6 371.3 247.5 380.4 224 383.2V288h79.81L304 322.9C304 335.6 298.6 347.8 290.4 355.2z"/></svg>