<svg xmlns="http://www.w3.org/2000/svg" viewBox="0 0 640 512"><!--! Font Awesome Free 6.0.0-beta2 by @fontawesome - https://fontawesome.com License - https://fontawesome.com/license/free (Icons: CC BY 4.0, Fonts: SIL OFL 1.1, Code: MIT License) --><path d="M128 32C128 14.33 142.3 0 160 0H544C561.7 0 576 14.33 576 32C576 49.67 561.7 64 544 64H384V128H416C522 128 608 213.1 608 320V352C608 369.7 593.7 384 576 384H304C293.9 384 284.4 379.3 278.4 371.2L192 256L39.6 195C34.83 193.1 31.26 189 30.02 184.1L4.97 83.88C2.445 73.78 10.08 64 20.49 64H31.1C52.14 64 71.11 73.48 83.2 89.6L111.1 128H319.1V64H159.1C142.3 64 127.1 49.67 127.1 32H128zM416 320H544C544 249.3 486.7 192 416 192V320zM536.2 512H256C238.3 512 224 497.7 224 480C224 462.3 238.3 448 256 448H536.2C553.2 448 569.5 441.3 581.5 429.3L585.4 425.4C597.9 412.9 618.1 412.9 630.6 425.4C643.1 437.9 643.1 458.1 630.6 470.6L626.7 474.5C602.7 498.5 570.2 512 536.2 512L536.2 512z"/></svg>