<svg xmlns="http://www.w3.org/2000/svg" viewBox="0 0 640 512"><!--! Font Awesome Free 6.0.0-beta2 by @fontawesome - https://fontawesome.com License - https://fontawesome.com/license/free (Icons: CC BY 4.0, Fonts: SIL OFL 1.1, Code: MIT License) --><path d="M352 352.6V48.01c0-26.51-21.49-48-48-48h-256c-26.51 0-48 21.49-48 48v432c0 17.67 14.33 32 32 32h264.9C291.4 502.6 288 491.7 288 480C288 427.9 313.3 381.8 352 352.6zM144 400c0 8.836-7.164 16-16 16H96c-8.836 0-16-7.164-16-16v-32c0-8.838 7.164-16 16-16h32c8.836 0 16 7.162 16 16V400zM144 304c0 8.836-7.164 16-16 16H96c-8.836 0-16-7.164-16-16v-32c0-8.838 7.164-16 16-16h32c8.836 0 16 7.162 16 16V304zM201.6 183.7c0 4.594-3.727 8.32-8.32 8.32H158.7c-4.594 0-8.32-3.727-8.32-8.32V153.6H120.3C115.7 153.6 112 149.9 112 145.3V110.7c0-4.594 3.727-8.32 8.32-8.32h30.08V72.34c0-4.594 3.727-8.32 8.32-8.32h34.56c4.594 0 8.32 3.727 8.32 8.32v30.08h30.08C236.3 102.4 240 106.1 240 110.7v34.56c0 4.594-3.727 8.32-8.32 8.32H201.6V183.7zM272 400c0 8.836-7.164 16-16 16H224c-8.836 0-16-7.164-16-16v-32c0-8.838 7.164-16 16-16h32c8.836 0 16 7.162 16 16V400zM272 304c0 8.836-7.164 16-16 16H224c-8.836 0-16-7.164-16-16v-32c0-8.838 7.164-16 16-16h32c8.836 0 16 7.162 16 16V304zM512 352h-64c-70.69 0-128 57.3-128 128c0 17.67 14.33 32 32 32h256c17.67 0 32-14.33 32-32C640 409.3 582.7 352 512 352zM480 320c53.02 0 96-42.98 96-96s-42.98-96-96-96s-96 42.98-96 96S426.1 320 480 320z"/></svg>