<svg xmlns="http://www.w3.org/2000/svg" viewBox="0 0 512 512"><!--! Font Awesome Free 6.0.0-beta2 by @fontawesome - https://fontawesome.com License - https://fontawesome.com/license/free (Icons: CC BY 4.0, Fonts: SIL OFL 1.1, Code: MIT License) --><path d="M480 448v-384c17.67 0 32-14.33 32-32c0-17.67-14.33-32-32-32H32c-17.67 0-32 14.33-32 32c0 17.67 14.33 32 32 32v384c-17.67 0-32 14.33-32 32c0 17.67 14.33 32 32 32h176v-96h96v96H480c17.67 0 32-14.33 32-32C512 462.3 497.7 448 480 448zM224 108.8c0-6.375 6.375-12.75 12.75-12.75h38.5C281.6 96.01 288 102.4 288 108.8v38.5c0 6.375-6.375 12.75-12.75 12.75h-38.5C230.4 160 224 153.6 224 147.3V108.8zM224 204.8c0-6.375 6.375-12.75 12.75-12.75h38.5C281.6 192 288 198.4 288 204.8v38.5c0 6.375-6.375 12.75-12.75 12.75h-38.5C230.4 256 224 249.6 224 243.3V204.8zM96 108.8c0-6.375 6.375-12.75 12.75-12.75h38.5C153.6 96.02 160 102.4 160 108.8V147.3c0 6.375-6.375 12.75-12.75 12.75h-38.5C102.4 160 96 153.6 96 147.3V108.8zM147.3 256h-38.5C102.4 256 96 249.6 96 243.3V204.8c0-6.375 6.375-12.75 12.75-12.75h38.5C153.6 192 160 198.4 160 204.8V243.3C160 249.6 153.6 256 147.3 256zM160 384c0-53 43-96 96-96s96 43 96 96H160zM416 243.3c0 6.375-6.375 12.75-12.75 12.75h-38.5C358.4 256 352 249.6 352 243.3V204.8c0-6.375 6.375-12.75 12.75-12.75h38.5C409.6 192 416 198.4 416 204.8V243.3zM416 147.3c0 6.375-6.375 12.75-12.75 12.75h-38.5C358.4 160 352 153.6 352 147.3V108.8c0-6.375 6.375-12.75 12.75-12.75h38.5C409.6 96.02 416 102.4 416 108.8V147.3z"/></svg>