<svg xmlns="http://www.w3.org/2000/svg" viewBox="0 0 448 512"><!--! Font Awesome Free 6.0.0-beta2 by @fontawesome - https://fontawesome.com License - https://fontawesome.com/license/free (Icons: CC BY 4.0, Fonts: SIL OFL 1.1, Code: MIT License) --><path d="M9.219 350.5C11.38 351.5 13.69 352 16 352c3.688 0 7.312-1.25 10.25-3.719l96-80C125.9 265.3 128 260.7 128 255.1S125.9 246.8 122.3 243.7l-96-80c-4.781-4-11.41-4.781-17.03-2.219C3.594 164.2 0 169.8 0 176v160C0 342.2 3.594 347.8 9.219 350.5zM32 96h384c17.67 0 32-14.33 32-32S433.7 32 416 32H32C14.33 32 0 46.33 0 63.1S14.33 96 32 96zM416 416H32c-17.67 0-32 14.33-32 31.1S14.33 480 32 480h384c17.67 0 32-14.33 32-32S433.7 416 416 416zM416 288h-192C206.3 288 192 302.3 192 319.1S206.3 352 224 352h192c17.67 0 32-14.33 32-32S433.7 288 416 288zM416 160h-192C206.3 160 192 174.3 192 191.1S206.3 224 224 224h192c17.67 0 32-14.33 32-32S433.7 160 416 160z"/></svg>