<svg xmlns="http://www.w3.org/2000/svg" viewBox="0 0 576 512"><!--! Font Awesome Free 6.0.0-beta2 by @fontawesome - https://fontawesome.com License - https://fontawesome.com/license/free (Icons: CC BY 4.0, Fonts: SIL OFL 1.1, Code: MIT License) --><path d="M554.1 83.5L318.4 4.875c-19.75-6.5-41-6.5-60.75 0L21.88 83.5C8.875 87.87 0 100.1 0 113.9v49l265-79.5c15-4.5 31-4.5 46 0L576 162.9V113.9C576 100.1 567.3 87.87 554.1 83.5zM274.3 114L0 196.3v228.4c0 15 10.38 28 25 31.25l242.1 53.88c13.75 3 28 3 41.75 0l242.1-53.88C565.6 452.6 576 439.6 576 424.6V196.3l-274.3-82.25C292.8 111.2 283.3 111.2 274.3 114zM128 230.1c0 3.625-2.375 6.75-5.875 7.75l-80 21.75C37 261 32 257.3 32 251.9v-16.5c0-3.625 2.375-6.75 5.875-7.75l80-21.88C123 204.4 128 208.3 128 213.5V230.1zM272 190.9c0 3.625-2.375 6.75-5.875 7.625l-96 26.25C165 226.1 160 222.3 160 217V200.4c0-3.5 2.375-6.75 5.875-7.625l96-26.25C267 165.1 272 169 272 174.3V190.9zM448 213.5c0-5.25 5-9.125 10.12-7.75l80 21.88C541.6 228.6 544 231.8 544 235.4v16.5c0 5.375-5 9.125-10.12 7.75l-80-21.75C450.4 236.9 448 233.8 448 230.1V213.5zM304 174.3c0-5.25 5-9.125 10.12-7.75l96 26.25C413.6 193.6 416 196.9 416 200.5V217c0 5.25-5 9.125-10.12 7.75l-96-26.25C306.4 197.6 304 194.5 304 190.9V174.3z"/></svg>