<svg xmlns="http://www.w3.org/2000/svg" viewBox="0 0 576 512"><!--! Font Awesome Free 6.0.0-beta2 by @fontawesome - https://fontawesome.com License - https://fontawesome.com/license/free (Icons: CC BY 4.0, Fonts: SIL OFL 1.1, Code: MIT License) --><path d="M575.8 218c-3.125-60.62-57.58-105.1-118.2-105.1l-9.372 .0001c-52.75 0-104.2-16.25-147.7-46.25c-41.1-28.1-95.96-41.62-153.2-28.75C129.3 41.15-.125 78.27 0 224c0 70.99 38.63 132.8 96 166.1l.0004 73.92C96 472.9 103.1 480 112 480l15.1 0c8.875 0 15.1-7.125 15.1-15.1l.0008-54.17c15.37 3.1 31.36 6.167 47.98 6.167c5.375 0 10.64-.7494 16.02-1.124l-.0001 49.12c0 8.874 7.125 15.1 15.1 15.1L239.1 480c8.875 0 15.1-7.125 15.1-15.1l.0001-59.46c14.25-5.125 27.85-11.39 40.35-19.51c45.75-29.75 97.37-49.04 151.1-49.04c25.5 0 16.15-.2423 23.15-.7423l74.45 136.4C548.8 476.9 554.2 480 559.1 480c1.25 0 2.666-.125 3.916-.5c7.125-1.75 12.09-8.25 12.09-15.5C575.1 464 576.2 223.8 575.8 218zM463.1 248c-13.25 0-23.1-10.75-23.1-23.1s10.75-23.1 23.1-23.1s23.1 10.75 23.1 23.1S477.2 248 463.1 248zM543.1 401.3l-39.88-73.13c15.12-5.75 28.75-14.49 39.88-25.87V401.3z"/></svg>