<svg xmlns="http://www.w3.org/2000/svg" viewBox="0 0 640 512"><!--! Font Awesome Free 6.0.0-beta2 by @fontawesome - https://fontawesome.com License - https://fontawesome.com/license/free (Icons: CC BY 4.0, Fonts: SIL OFL 1.1, Code: MIT License) --><path d="M160 243.1L147.2 272h25.69L160 243.1zM576 63.1L336 64v384l240 0c35.35 0 64-28.65 64-64v-256C640 92.65 611.3 63.1 576 63.1zM552 232h-1.463c-8.082 27.78-21.06 49.29-35.06 66.34c7.854 4.943 13.33 7.324 13.46 7.375c12.22 5 18.19 18.94 13.28 31.19C538.4 346.3 529.5 352 519.1 352c-2.906 0-5.875-.5313-8.75-1.672c-1-.3906-14.33-5.951-31.26-18.19c-16.69 12.04-29.9 17.68-31.18 18.19C445.9 351.5 442.9 352 440 352c-9.562 0-18.59-5.766-22.34-15.2c-4.844-12.3 1.188-26.19 13.44-31.08c.748-.3047 6.037-2.723 13.25-7.189c-3.375-4.123-6.742-8.324-9.938-13.03c-7.469-10.97-4.594-25.89 6.344-33.34c11.03-7.453 25.91-4.594 33.34 6.375c1.883 2.77 3.881 5.186 5.854 7.682C487.3 256.8 494.1 245.5 499.5 232H408C394.8 232 384 221.3 384 208S394.8 184 408 184h48c0-13.25 10.75-24 24-24S504 170.8 504 184h48c13.25 0 24 10.75 24 24S565.3 232 552 232zM0 127.1v256c0 35.35 28.65 64 64 64L304 448V64L64 63.1C28.65 63.1 0 92.65 0 127.1zM74.06 318.3l64-144c7.688-17.34 36.19-17.34 43.88 0l64 144c5.375 12.11-.0625 26.3-12.19 31.69C230.6 351.3 227.3 352 224 352c-9.188 0-17.97-5.312-21.94-14.25L193.1 319.6C193.3 319.7 192.7 320 192 320H128c-.707 0-1.305-.3418-1.996-.4023l-8.066 18.15c-5.406 12.14-19.69 17.55-31.69 12.19C74.13 344.5 68.69 330.4 74.06 318.3z"/></svg>