<svg xmlns="http://www.w3.org/2000/svg" viewBox="0 0 384 512"><!--! Font Awesome Free 6.0.0-beta2 by @fontawesome - https://fontawesome.com License - https://fontawesome.com/license/free (Icons: CC BY 4.0, Fonts: SIL OFL 1.1, Code: MIT License) --><path d="M384 448c0 17.69-14.33 32-32 32H181.6c-.6875 .0449-1.291 .375-1.988 .375c-1.047 0-2.094-.0625-3.172-.1562C176.1 480.2 175.7 480 175.3 480H32c-17.67 0-32-14.31-32-32s14.33-32 32-32h16.97C18.45 382 0 337.4 0 288.7C0 212.2 45.89 146.3 112 115.3V64c0-17.69 14.33-32 32-32s32 14.31 32 32v33.41c6.686-.6777 13.46-1.039 20.33-1.039c3.955 0 7.762 .6758 11.67 .9043V64c0-17.69 14.33-32 32-32s32 14.31 32 32v47.83c50.78 20.86 91.75 61.7 110.2 114.1c5.797 16.72-3.047 34.94-19.75 40.72c-16.67 5.844-34.92-3.031-40.72-19.72C312.5 221.1 294.7 198.9 272 183.5V256c0 17.69-14.33 32-32 32s-32-14.31-32-32V161.3c-3.885-.334-7.715-.8965-11.67-.8965c-6.961 0-13.65 .9844-20.33 1.994V256c0 17.69-14.33 32-32 32s-32-14.31-32-32V190.7C82.92 214.2 64 249.2 64 288.8C64 354 113.7 408.1 179.1 416H352C369.7 416 384 430.3 384 448z"/></svg>