<svg xmlns="http://www.w3.org/2000/svg" viewBox="0 0 512 512"><!--! Font Awesome Free 6.0.0-beta2 by @fontawesome - https://fontawesome.com License - https://fontawesome.com/license/free (Icons: CC BY 4.0, Fonts: SIL OFL 1.1, Code: MIT License) --><path d="M458.1 412.8C491.7 369.5 512 315.2 512 256s-20.26-113.5-53.95-156.8l12.57-12.57c12.5-12.5 12.5-32.75 0-45.25s-32.75-12.5-45.25 0L412.8 53.95C369.5 20.26 315.2 0 256 0S142.5 20.26 99.2 53.95L86.63 41.38c-12.5-12.5-32.75-12.5-45.25 0s-12.5 32.75 0 45.25L53.95 99.2C20.26 142.5 0 196.8 0 256s20.26 113.5 53.95 156.8l-12.57 12.57c-12.5 12.5-12.5 32.75 0 45.25C47.63 476.9 55.81 480 64 480s16.38-3.125 22.62-9.375l12.57-12.57C142.5 491.7 196.8 512 256 512s113.5-20.26 156.8-53.95l12.57 12.57C431.6 476.9 439.8 480 448 480s16.38-3.125 22.62-9.375c12.5-12.5 12.5-32.75 0-45.25L458.1 412.8zM448 256c0 41.4-13.3 79.68-35.68 111.1l-58.17-58.17C362.7 293.1 368 275.2 368 256s-5.301-37.08-13.85-52.9l58.17-58.17C434.7 176.3 448 214.6 448 256zM208 256c0-26.47 21.53-48 48-48s48 21.53 48 48S282.5 304 256 304S208 282.5 208 256zM256 64c41.4 0 79.68 13.3 111.1 35.68l-58.17 58.17C293.1 149.3 275.2 144 256 144S218.9 149.3 203.1 157.9L144.9 99.68C176.3 77.3 214.6 64 256 64zM64 256c0-41.4 13.3-79.68 35.68-111.1l58.17 58.17C149.3 218.9 144 236.8 144 256s5.301 37.08 13.85 52.9l-58.17 58.17C77.3 335.7 64 297.4 64 256zM256 448c-41.4 0-79.68-13.3-111.1-35.68l58.17-58.17C218.9 362.7 236.8 368 256 368s37.08-5.301 52.9-13.85l58.17 58.17C335.7 434.7 297.4 448 256 448z"/></svg>