<svg xmlns="http://www.w3.org/2000/svg" viewBox="0 0 512 512"><!--! Font Awesome Free 6.0.0-beta2 by @fontawesome - https://fontawesome.com License - https://fontawesome.com/license/free (Icons: CC BY 4.0, Fonts: SIL OFL 1.1, Code: MIT License) --><path d="M480 224H224C206.3 224 192 238.3 192 256s14.33 32 32 32h256c17.67 0 32-14.33 32-32S497.7 224 480 224zM224 128h256c17.67 0 32-14.33 32-32s-14.33-32-32-32H224C206.3 64 192 78.33 192 96S206.3 128 224 128zM480 384H224c-17.67 0-32 14.33-32 32s14.33 32 32 32h256c17.67 0 32-14.33 32-32S497.7 384 480 384zM40 224h80C133.3 224 144 213.3 144 199.1s-10.75-24-24-24h-16V55.99c0-8.594-4.594-16.53-12.06-20.81C84.5 30.91 75.28 30.95 67.91 35.25l-32 18.67C24.47 60.61 20.59 75.3 27.28 86.75C33.13 96.85 45.31 101.1 56 97.29v78.71h-16c-13.25 0-24 10.75-24 24S26.75 224 40 224zM136.3 432h-49.44l36.4-32.48c29.92-25.83 33.54-71.36 8.049-101.5C118.6 282.1 100.7 273.8 80.89 272.2C61.27 270.7 41.93 276.9 26.92 289.9L14.42 300.7c-10.04 8.656-11.17 23.81-2.527 33.86c8.672 10.06 23.8 11.14 33.78 2.516l12.51-10.79c5.24-4.531 12.1-6.672 18.96-6.156c6.926 .5469 13.2 3.734 17.62 8.969c8.703 10.28 7.486 25.26-3.057 34.36l-83.7 74.67c-7.424 6.625-9.982 17.16-6.457 26.47C5.119 473.8 14.01 480 23.96 480h112.4c13.23 0 23.96-10.75 23.96-23.1C160.3 442.8 149.5 432 136.3 432z"/></svg>