<svg xmlns="http://www.w3.org/2000/svg" viewBox="0 0 384 512"><!--! Font Awesome Free 6.0.0-beta2 by @fontawesome - https://fontawesome.com License - https://fontawesome.com/license/free (Icons: CC BY 4.0, Fonts: SIL OFL 1.1, Code: MIT License) --><path d="M368 272V448c0 17.69-14.33 32-32 32s-32-14.31-32-32V272c0-50.56-33.9-92.9-80-106.8V448c0 17.69-14.33 32-32 32s-32-14.31-32-32V165.2C113.9 179.1 80 221.4 80 272V448c0 17.69-14.33 32-32 32s-32-14.31-32-32V272c0-86.09 62.2-157.8 144-172.9V64c0-17.69 14.33-32 32-32s32 14.31 32 32v35.06C305.8 114.2 368 185.9 368 272z"/></svg>