<svg xmlns="http://www.w3.org/2000/svg" viewBox="0 0 576 512"><!--! Font Awesome Free 6.0.0-beta2 by @fontawesome - https://fontawesome.com License - https://fontawesome.com/license/free (Icons: CC BY 4.0, Fonts: SIL OFL 1.1, Code: MIT License) --><path d="M288 0C221.7 0 168 53.73 168 120c0 48.38 16.86 61.9 107.7 193.5c5.957 8.604 18.69 8.604 24.65 0C391.1 181.9 408 168.4 408 120C408 53.73 354.3 0 288 0zM288 176C261.5 176 240 154.5 240 128S261.5 80 288 80c26.48 0 48 21.53 48 48S314.5 176 288 176zM10.06 227.6C3.984 230 0 235.9 0 242.4v253.5c0 11.32 11.49 19.04 22 14.84L160 448V201.4C152.5 188.8 147.2 178 143.4 167.5L10.06 227.6zM326.6 331.8C317.9 344.4 303.4 352 288 352c-15.42 0-29.86-7.566-38.66-20.28C233.2 308.3 196.9 256.6 192 249.6V447.1L384 512V249.6C379.1 256.6 342.8 308.3 326.6 331.8zM554.1 161.2L416 224v288l149.9-67.59C572 441.1 576 436.1 576 429.6V176C576 164.7 564.6 156.1 554.1 161.2z"/></svg>