<svg xmlns="http://www.w3.org/2000/svg" viewBox="0 0 576 512"><!--! Font Awesome Free 6.0.0-beta2 by @fontawesome - https://fontawesome.com License - https://fontawesome.com/license/free (Icons: CC BY 4.0, Fonts: SIL OFL 1.1, Code: MIT License) --><path d="M559 54.5C524.1 38.25 489.2 32 454.3 32C343.5 32 232.5 94.38 121.7 94.38c-27.79 0-55.57-4-83.36-13.75C35.21 79.5 32.06 79 29.03 79C13.5 79 0 92.38 0 110.8v317.4c0 12.62 6.525 24.5 16.99 29.38C51.86 473.8 86.85 480 121.7 480c110.8 0 221.7-62.38 332.6-62.38c27.79 0 55.57 4 83.36 13.75c3.15 1.125 6.301 1.625 9.338 1.625C562.5 433 576 419.6 576 401.1V83.88C576 71.25 569.5 59.38 559 54.5zM528 151.2C496.5 147.2 472 120.6 472 88c0-2.209 .4486-4.262 .6751-6.403C492 83.22 510.7 86.56 528 93.39V151.2zM208 256c0-53.02 35.82-96 79.1-96s79.1 42.98 79.1 96c0 53.02-35.82 96-79.1 96S208 309 208 256zM48 133.6C68.05 138.6 88.86 140.1 110.4 141.7C104.2 170.5 78.63 192 48 192V133.6zM48 360.8C79.53 364.8 104 391.4 104 424c0 2.207-.4486 4.262-.6751 6.403C83.95 428.8 65.35 425.4 48 418.6V360.8zM528 378.4c-20.05-5.02-40.85-7.4-62.44-8.139C471.8 341.5 497.4 320 528 320V378.4z"/></svg>