<svg xmlns="http://www.w3.org/2000/svg" viewBox="0 0 576 512"><!--! Font Awesome Free 6.0.0-beta2 by @fontawesome - https://fontawesome.com License - https://fontawesome.com/license/free (Icons: CC BY 4.0, Fonts: SIL OFL 1.1, Code: MIT License) --><path d="M528 64h-480C21.6 64 0 85.6 0 112v288C0 426.5 21.49 448 48 448h480c26.51 0 48-21.49 48-48v-288C576 85.49 554.5 64 528 64zM256 335.1c0 8.837-7.163 16-16 16h-160c-8.837 0-15.1-7.163-15.1-16s7.163-16 15.1-16h160C248.8 319.1 256 327.2 256 335.1zM320 240C320 248.8 312.8 256 304 256h-224C71.16 256 64 248.8 64 240S71.16 224 79.1 224h224C312.8 224 320 231.2 320 240zM512 335.1c0 8.837-7.163 16-16 16h-96c-8.837 0-16-7.163-16-16s7.163-16 16-16h96C504.8 319.1 512 327.2 512 335.1zM512 240C512 248.8 504.8 256 496 256h-96C391.2 256 384 248.8 384 240v-32C384 199.2 391.2 192 400 192h96C504.8 192 512 199.2 512 208V240z"/></svg>