<svg xmlns="http://www.w3.org/2000/svg" viewBox="0 0 576 512"><!--! Font Awesome Free 6.0.0-beta2 by @fontawesome - https://fontawesome.com License - https://fontawesome.com/license/free (Icons: CC BY 4.0, Fonts: SIL OFL 1.1, Code: MIT License) --><path d="M528 64h-480C21.6 64 0 85.6 0 112v288C0 426.4 21.6 448 48 448h480c26.4 0 48-21.6 48-48v-288C576 85.6 554.4 64 528 64zM205.6 298.1c-3.604 20.82-19.34 34.52-41.58 39.33V348c0 11.05-8.988 20-20.03 20s-19.97-8.953-19.97-20v-11.06c-8.707-1.934-17.37-4.752-25.16-7.568l-4.031-1.453C84.44 324.2 79 312.8 82.7 302.4S97.89 286.6 108.2 290.2l4.234 1.516c7.844 2.828 16.73 6.047 23.67 7.078c13.62 2.125 28.73 .2187 30.08-7.547c.8594-5 1.344-7.75-27.75-16.08L132.7 273.5C115.4 268.5 74.98 256.6 82.38 213.9c3.615-20.9 19.3-34.82 41.67-39.58V164c0-11.05 8.918-20 19.97-20s20.03 8.953 20.03 20v10.95C169.5 176.2 175.3 177.7 182.4 180.2c10.44 3.609 15.97 15 12.34 25.44c-3.609 10.42-15 15.98-25.44 12.34C163.5 215.1 157.3 214 151.7 213.2C138.2 211 123.1 212.1 121.8 220.7C121 225.1 120.5 228.3 144 235.2l5.469 1.578C171.7 243.1 213.1 254.9 205.6 298.1zM336 320l-64-.0005c-8.801 0-16-7.201-16-15.1c0-8.801 7.199-16 16-16L336 288C344.8 288 352 295.2 352 304C352 312.8 344.8 320 336 320zM496 319.1L432 320C423.2 320 416 312.8 416 304C416 295.2 423.2 288 432 288l64-.0005c8.801 0 16 7.199 16 16C512 312.8 504.8 319.1 496 319.1zM496 224h-224C263.2 224 256 216.8 256 208C256 199.2 263.2 192 272 192h224C504.8 192 512 199.2 512 208C512 216.8 504.8 224 496 224z"/></svg>