<svg xmlns="http://www.w3.org/2000/svg" viewBox="0 0 576 512"><!--! Font Awesome Free 6.0.0-beta2 by @fontawesome - https://fontawesome.com License - https://fontawesome.com/license/free (Icons: CC BY 4.0, Fonts: SIL OFL 1.1, Code: MIT License) --><path d="M528 64h-480C21.49 64 0 85.49 0 112v288C0 426.5 21.49 448 48 448h480c26.51 0 48-21.49 48-48v-288C576 85.49 554.5 64 528 64zM48 400v-64c35.38 0 64 28.62 64 64H48zM48 176v-64h64C112 147.4 83.38 176 48 176zM288 352c-44.18 0-80-42.98-80-96c0-53.02 35.82-96 80-96s80 42.98 80 96C368 309 332.2 352 288 352zM528 400h-64c0-35.38 28.62-64 64-64V400zM528 176c-35.38 0-64-28.62-64-64h64V176z"/></svg>