<svg xmlns="http://www.w3.org/2000/svg" viewBox="0 0 576 512"><!--! Font Awesome Free 6.0.0-beta2 by @fontawesome - https://fontawesome.com License - https://fontawesome.com/license/free (Icons: CC BY 4.0, Fonts: SIL OFL 1.1, Code: MIT License) --><path d="M323.6 288H312V188.4C312 181.6 306.4 176 299.6 176H264c-4.664 0-8.094 2.723-10.23 6.805l-12.44 23.11c-1.945 3.887-1.75 8.555 .5781 12.25C244 221.7 248.1 224 252.4 224H264v64H252.4C245.6 288 240 293.6 240 300.4v23.11C240 330.4 245.6 336 252.4 336h71.11C330.4 336 336 330.4 336 323.6V300.4C336 293.6 330.4 288 323.6 288zM528 64h-480C21.49 64 0 85.49 0 112v288C0 426.5 21.49 448 48 448h480c26.51 0 48-21.49 48-48v-288C576 85.49 554.5 64 528 64zM48 400v-64c35.38 0 64 28.62 64 64H48zM48 176v-64h64C112 147.4 83.38 176 48 176zM288 384c-58.91 0-106.7-57.31-106.7-128c0-70.69 47.75-128 106.7-128s106.7 57.31 106.7 128C394.7 326.7 346.9 384 288 384zM528 400h-64c0-35.38 28.62-64 64-64V400zM528 176c-35.38 0-64-28.62-64-64h64V176z"/></svg>