<svg xmlns="http://www.w3.org/2000/svg" viewBox="0 0 448 512"><!--! Font Awesome Free 6.0.0-beta2 by @fontawesome - https://fontawesome.com License - https://fontawesome.com/license/free (Icons: CC BY 4.0, Fonts: SIL OFL 1.1, Code: MIT License) --><path d="M101.8 348.3c4.781 4 11.41 4.781 17.03 2.219C124.4 347.9 128 342.2 128 336V176C128 169.8 124.4 164.2 118.8 161.5C116.6 160.5 114.3 160 112 160c-3.688 0-7.312 1.25-10.25 3.719l-96 80C2.094 246.8 0 251.3 0 256c0 4.75 2.094 9.245 5.75 12.28L101.8 348.3zM416 416H32c-17.67 0-32 14.33-32 32s14.33 32 32 32h384c17.67 0 32-14.33 32-32S433.7 416 416 416zM32 96h384c17.67 0 32-14.33 32-32s-14.33-32-32-32H32C14.33 32 0 46.33 0 64S14.33 96 32 96zM416 288h-192c-17.67 0-32 14.33-32 32s14.33 32 32 32h192c17.67 0 32-14.33 32-32S433.7 288 416 288zM416 160h-192C206.3 160 192 174.3 192 192s14.33 32 32 32h192c17.67 0 32-14.33 32-32S433.7 160 416 160z"/></svg>