<svg xmlns="http://www.w3.org/2000/svg" viewBox="0 0 512 512"><!--! Font Awesome Free 6.0.0-beta2 by @fontawesome - https://fontawesome.com License - https://fontawesome.com/license/free (Icons: CC BY 4.0, Fonts: SIL OFL 1.1, Code: MIT License) --><path d="M495.8 192h-8.668l-136.9 151.9C351 346.6 351.1 349.1 351.1 352l.0069 128c0 17.75-14.25 32-32 32h-128c-17.63 0-32-14.25-32-32l-.0056-128c0-2.875 .7781-5.5 1.528-8.125L24.73 192H16.11C6.858 192-1.018 184.1 .1074 175c9.126-75.5 78.38-132.2 158.3-158.8C121.1 55.75 95.99 116.9 95.99 192H67.86l116.6 129.5C186.1 320.9 189.2 320 191.1 320h48l.0002-128H127.1c0-115.2 68.88-192 128-192s128 76.75 128 192h-112l.0002 128h48c2.75 0 5.003 .875 7.504 1.5L444.1 192h-28.13c0-75.12-26-136.2-62.38-175.8c79.88 26.38 149.1 83.13 158.3 158.8C513 184.2 505.2 192 495.8 192z"/></svg>