<svg xmlns="http://www.w3.org/2000/svg" viewBox="0 0 576 512"><!--! Font Awesome Free 6.0.0-beta2 by @fontawesome - https://fontawesome.com License - https://fontawesome.com/license/free (Icons: CC BY 4.0, Fonts: SIL OFL 1.1, Code: MIT License) --><path d="M255.1 96c0 0 138.8 .375 143.9 .75c0-.25 .125-.5 .125-.75c0-53-42.1-96-95.1-96S207.1 43 207.1 96c0 2.125 .5 4.125 .625 6.25C223.7 98.25 239.6 96 255.1 96zM559.1 224l-29.53 .0035c-8.75-20-21.6-37.73-37.35-52.48L511.1 96l-32 .0063c-29.38 0-55.38 13.53-73 34.28C399.4 129.3 391.9 128 383.1 128H255.1C178.6 128 114.2 183 99.3 256l-43.32 .0039c-14.75 0-26.5-13.51-23.5-28.76C34.74 215.7 45.36 208 56.99 208h.9998c3.25 0 6-2.75 6-5.999v-20C63.99 178.8 61.24 176 57.99 176c-28.5 0-53.89 20.38-57.51 48.63c-4.375 34.13 22.26 63.38 55.51 63.38L95.99 288c0 52.25 25.36 98.13 63.99 127.3L159.1 480c0 17.6 14.4 32 32 32H223.1c17.6 0 32-14.4 32-32l.0026-32h128l-.0033 32c0 17.6 14.4 32 32 32h32c17.6 0 32-14.4 32-32l-.0002-64.73c11.75-8.875 22.32-19.39 31.32-31.26L559.1 384C568.8 384 576 376.8 576 368v-128C576 231.2 568.8 224 559.1 224zM431.1 288c-8.75 0-16-7.25-16-16S423.2 256 431.1 256s16 7.25 16 16S440.7 288 431.1 288z"/></svg>