<svg xmlns="http://www.w3.org/2000/svg" viewBox="0 0 576 512"><!--! Font Awesome Free 6.0.0-beta2 by @fontawesome - https://fontawesome.com License - https://fontawesome.com/license/free (Icons: CC BY 4.0, Fonts: SIL OFL 1.1, Code: MIT License) --><path d="M416 280c0 13.23-10.77 24-24 24c-13.23 0-24-10.77-24-24S378.8 256 392 256C405.2 256 416 266.8 416 280zM186.8 280H229.2L208 237.7L186.8 280zM576 96v320c0 35.35-28.65 64-64 64H64c-35.35 0-64-28.65-64-64v-320c0-35.35 28.65-64 64-64h448C547.3 32 576 60.65 576 96zM301.5 317.3l-72-144c-8.125-16.25-34.81-16.25-42.94 0l-72 144c-5.938 11.86-1.125 26.27 10.75 32.2c11.88 5.969 26.28 1.125 32.19-10.73L166.8 320H249.2l9.367 18.73C262.8 347.1 271.2 352 280 352c3.594 0 7.25-.8125 10.69-2.531C302.6 343.5 307.4 329.1 301.5 317.3zM464 184c0-13.25-10.75-23.1-24-23.1S416 170.8 416 184v28.41C408.5 209.7 400.5 208 392 208C352.2 208 320 240.2 320 280S352.2 352 392 352c11.11 0 21.51-2.727 30.9-7.221c4.355 4.439 10.39 7.221 17.1 7.221c13.25 0 24-10.75 24-24V184z"/></svg>