<svg xmlns="http://www.w3.org/2000/svg" viewBox="0 0 576 512"><!--! Font Awesome Free 6.0.0-beta2 by @fontawesome - https://fontawesome.com License - https://fontawesome.com/license/free (Icons: CC BY 4.0, Fonts: SIL OFL 1.1, Code: MIT License) --><path d="M512 32H64C28.65 32 0 60.65 0 96v320c0 35.35 28.65 64 64 64h448c35.35 0 64-28.65 64-64V96C576 60.65 547.3 32 512 32zM128 384c-17.7 0-32-14.3-32-32c0-17.7 14.3-32 32-32s32 14.3 32 32C160 369.7 145.7 384 128 384zM128 288C110.3 288 96 273.7 96 256c0-17.7 14.3-32 32-32s32 14.3 32 32C160 273.7 145.7 288 128 288zM128 192C110.3 192 96 177.7 96 160c0-17.7 14.3-32 32-32s32 14.3 32 32C160 177.7 145.7 192 128 192zM480 352c0 13.25-10.75 24-24 24H215.1C202.7 376 192 365.3 192 352s10.75-24 23.1-24H456C469.3 328 480 338.7 480 352zM480 255.1C480 269.3 469.3 280 456 280H215.1C202.7 280 192 269.3 192 256c0-13.25 10.75-24 23.1-24H456C469.3 232 480 242.7 480 255.1zM480 159.1C480 173.3 469.3 184 456 184H215.1C202.7 184 192 173.3 192 160C192 146.7 202.7 136 215.1 136H456C469.3 136 480 146.7 480 159.1z"/></svg>