<svg xmlns="http://www.w3.org/2000/svg" viewBox="0 0 512 512"><!--! Font Awesome Free 6.0.0-beta2 by @fontawesome - https://fontawesome.com License - https://fontawesome.com/license/free (Icons: CC BY 4.0, Fonts: SIL OFL 1.1, Code: MIT License) --><path d="M416 320h-96c-17.62 0-32-14.38-32-32s14.38-32 32-32h96c0 0 96-107 96-160s-43-96-96-96s-96 43-96 96c0 25.5 22.27 63.38 45.27 96H320c-52.88 0-96 43.12-96 96s43.13 96 96 96h96c17.62 0 32 14.38 32 32s-14.38 32-32 32H185.5c-16 24.75-33.75 47.75-47.25 64H416c52.88 0 96-43.13 96-96S468.9 320 416 320zM416 64c17.75 0 32 14.25 32 32s-14.25 32-32 32s-32-14.25-32-32S398.2 64 416 64zM96 256c-53 0-96 43-96 96s96 160 96 160s96-107 96-160S149 256 96 256zM96 384c-17.75 0-32-14.25-32-32s14.25-32 32-32s32 14.25 32 32S113.8 384 96 384z"/></svg>