<svg xmlns="http://www.w3.org/2000/svg" viewBox="0 0 512 512"><!--! Font Awesome Free 6.0.0-beta2 by @fontawesome - https://fontawesome.com License - https://fontawesome.com/license/free (Icons: CC BY 4.0, Fonts: SIL OFL 1.1, Code: MIT License) --><path d="M394.1 305.6l-8.281-2.781c-36.03-12.31-35.13-18.28-33.38-30.19c.1523-1.039 .8066-22.63 42.06-15.25c6.375 1.188 14.72 3.844 25.5 8.219c16.25 6.5 35.03-1.312 41.66-17.72c6.594-16.38-1.312-35.03-17.72-41.66c-15.03-6.062-27.06-9.812-37.91-11.78c-32.94-6.094-62.91-.75-84.56 14.81c-17.81 12.75-29 31.44-32.34 54c-10.47 70.56 50.13 91.28 75.97 100.1l8.75 2.938c42.47 14.19 43.75 18.91 41.66 33.06c-2.428 16.46-22.38 18.91-42.34 15.19c-9.781-1.688-22.81-7.188-34.34-12.03l-6.625-2.75c-16.28-6.719-35 1-41.78 17.34c-6.75 16.34 1 35.03 17.34 41.78l6.281 2.625c14.62 6.156 31.22 13.12 47.88 16.03C370.8 479.2 379.4 480 387.8 480c22.59 0 42.91-5.875 58.75-17.25c17.81-12.75 29-31.44 32.34-54C489.4 337.4 429.8 317.5 394.1 305.6zM288 176C288 96.59 223.4 32 144 32H64C46.31 32 32 46.31 32 64v384c0 17.69 14.31 32 32 32s32-14.31 32-32v-128h42.33l55.95 139.9C199.3 472.4 211.3 480 224 480c3.969 0 8-.7187 11.88-2.281c16.41-6.562 24.41-25.19 17.84-41.59L202.2 307.4C252.7 285 288 234.6 288 176zM144 256H96V96h48C188.1 96 224 131.9 224 176S188.1 256 144 256z"/></svg>