<svg xmlns="http://www.w3.org/2000/svg" viewBox="0 0 640 512"><!--! Font Awesome Free 6.0.0-beta2 by @fontawesome - https://fontawesome.com License - https://fontawesome.com/license/free (Icons: CC BY 4.0, Fonts: SIL OFL 1.1, Code: MIT License) --><path d="M165.4 391.8c13.44 13.17 39.66 24.04 58.47 24.24c21.24 0 46.33-5.852 59.12-21.89C291.8 382.9 305.5 376.5 320 376.3c14.46 .125 28.15 6.597 37.04 17.76c12.79 16.04 37.88 21.89 59.12 21.89c18.81-.2031 45.03-11.07 58.47-24.24l92-88.82C571.8 297.7 576 287.6 576 280.3c0-12.9-9.938-26.56-22.22-30.5L512 236.4V96.09c0-17.67-14.34-32.03-32-32.03l-63.1-.0367L416 24.02C416 10.76 405.3 0 392 0h-144C234.8 0 224 10.76 224 24.02L223.1 64.02L160 64.06c-17.66 0-32 14.36-32 32.03v140.3L86.22 249.8C73.94 253.7 64 267.4 64 280.3c0 7.318 4.188 17.45 9.375 22.65L165.4 391.8zM192 128.1h256v87.64l-118.2-38.03C326.2 176.6 322.1 176.3 320 176.4C317 176.3 313.8 176.6 310.2 177.7L192 215.8V128.1zM581.8 448.8c-48.52-8.465-45.5-28.07-69.6-28.07c-25.02 0-31.19 30.28-96.18 30.28c-48.59 0-72.72-21.01-73.38-21.55c-6.141-5.865-14.26-8.752-22.42-8.752c-24.75 0-31.59 30.3-96.2 30.3c-48.59 0-72.69-20.98-73.41-21.52c-6.125-5.863-14.3-8.805-22.46-8.805c-8.072 0-16.12 2.881-22.38 8.477c-29.01 25-73.75 11.94-73.75 49.6c0 15.32 12.77 30.54 31.71 30.54c9.771 0 39.65-6.99 64.26-20.8c19.5 10.98 51.54 23.51 96.1 23.51s76.43-12.5 95.93-23.48c19.53 10.98 51.55 23.44 96.08 23.44c44.59 0 76.48-12.49 95.98-23.47c24.71 13.87 54.74 20.79 64.24 20.79C595.2 509.3 608 494.2 608 478.7C608 464.3 597.2 451.5 581.8 448.8z"/></svg>