<svg xmlns="http://www.w3.org/2000/svg" viewBox="0 0 512 512"><!--! Font Awesome Free 6.0.0-beta2 by @fontawesome - https://fontawesome.com License - https://fontawesome.com/license/free (Icons: CC BY 4.0, Fonts: SIL OFL 1.1, Code: MIT License) --><path d="M160 384h320V160H160V384zM496 63.1L128 63.1v-48c0-8.75-7.25-16-16-16l-32 0c-8.75 0-16 7.25-16 16v48L16 63.1c-8.75 0-16 7.25-16 16v32c0 8.75 7.25 16 16 16H64v368C64 504.8 71.25 512 80 512h32C120.8 512 128 504.8 128 496v-368h368c8.75 0 16-7.25 16-16v-32C512 71.25 504.8 63.1 496 63.1z"/></svg>