<svg xmlns="http://www.w3.org/2000/svg" viewBox="0 0 448 512"><!--! Font Awesome Free 6.0.0-beta2 by @fontawesome - https://fontawesome.com License - https://fontawesome.com/license/free (Icons: CC BY 4.0, Fonts: SIL OFL 1.1, Code: MIT License) --><path d="M439.2 453l-142-69.01l142-69c7.876-4 11.13-13.63 7.125-21.5l-14.25-28.63c-4.001-7.876-13.5-11.13-21.5-7.125L224 348.4L37.47 257.8C29.59 253.8 19.97 257 15.97 264.9L1.715 293.5C-2.286 301.4 .9653 311 8.842 315l142 69l-142 69.01c-7.876 4-11.13 13.63-7.127 21.5l14.25 28.63c4.001 7.876 13.63 11.13 21.5 7.125L224 419.7l186.5 90.63c7.876 4 17.5 .7503 21.5-7.125l14.25-28.63C450.3 466.7 447 457 439.2 453zM149.1 237.3L144.5 263.1C141.9 275.8 149.1 288 160.1 288h126c11.13 0 19.13-12.25 16.5-24.88l-5.502-25.88c41.76-22.37 69.1-62.75 69.1-109.3C368 57.25 303.5 0 224 0S79.99 57.25 79.99 127.1C79.99 174.5 108.2 214.9 149.1 237.3zM280 112c17.63 0 32 14.38 32 32S297.6 176 280 176c-17.63 0-32.01-14.38-32.01-32S262.4 112 280 112zM167.1 112c17.63 0 32 14.38 32 32S185.6 176 167.1 176s-32.01-14.38-32.01-32S150.4 112 167.1 112z"/></svg>