<svg xmlns="http://www.w3.org/2000/svg" viewBox="0 0 512 512"><!--! Font Awesome Free 6.0.0-beta2 by @fontawesome - https://fontawesome.com License - https://fontawesome.com/license/free (Icons: CC BY 4.0, Fonts: SIL OFL 1.1, Code: MIT License) --><path d="M224 160H96C43 160 0 203 0 256v224c0 17.62 14.38 32 32 32h256c17.62 0 32-14.38 32-32V256C320 203 277 160 224 160zM160 416c-44.13 0-80-35.88-80-80S115.9 256 160 256s80 35.88 80 80S204.1 416 160 416zM224 32c0-17.62-14.38-32-32-32H128C110.4 0 96 14.38 96 32v96h128V32zM381.8 51.58C383 50.97 384 49.36 384 48c0-1.375-1-2.969-2.219-3.578L352 32l-12.44-29.78C338.1 1 337.4 0 336 0s-2.969 1-3.594 2.219L320 32l-29.78 12.42C289 45.03 288 46.63 288 48c0 1.359 1 2.969 2.219 3.578L320 64l12.41 29.78C333 95 334.6 96 336 96s2.969-1 3.562-2.219L352 64L381.8 51.58zM448 64l12.41 29.78C461 95 462.6 96 464 96s2.969-1 3.562-2.219L480 64l29.78-12.42C511 50.97 512 49.36 512 48c0-1.375-1-2.969-2.219-3.578L480 32l-12.44-29.78C466.1 1 465.4 0 464 0s-2.969 1-3.594 2.219L448 32l-29.78 12.42C417 45.03 416 46.63 416 48c0 1.359 1 2.969 2.219 3.578L448 64zM480 224l-12.44-29.78C466.1 193 465.4 192 464 192s-2.969 1-3.594 2.219L448 224l-29.78 12.42C417 237 416 238.6 416 240c0 1.359 1 2.969 2.219 3.578L448 256l12.41 29.78C461 287 462.6 288 464 288s2.969-1 3.562-2.219L480 256l29.78-12.42C511 242.1 512 241.4 512 240c0-1.375-1-2.969-2.219-3.578L480 224zM445.8 147.6C447 146.1 448 145.4 448 144c0-1.375-1-2.969-2.219-3.578L416 128l-12.44-29.78C402.1 97 401.4 96 400 96s-2.969 1-3.594 2.219L384 128l-29.78 12.42C353 141 352 142.6 352 144c0 1.359 1 2.969 2.219 3.578L384 160l12.41 29.78C397 191 398.6 192 400 192s2.969-1 3.562-2.219L416 160L445.8 147.6z"/></svg>