<svg xmlns="http://www.w3.org/2000/svg" viewBox="0 0 448 512"><!--! Font Awesome Free 6.0.0-beta2 by @fontawesome - https://fontawesome.com License - https://fontawesome.com/license/free (Icons: CC BY 4.0, Fonts: SIL OFL 1.1, Code: MIT License) --><path d="M240 192H192v64h48c17.66 0 32-14.34 32-32S257.7 192 240 192zM384 32H64C28.65 32 0 60.65 0 96v320c0 35.35 28.65 64 64 64h320c35.35 0 64-28.65 64-64V96C448 60.65 419.3 32 384 32zM240 320H192v32c0 17.69-14.31 32-32 32s-32-14.31-32-32V160c0-17.69 14.31-32 32-32h80c52.94 0 96 43.06 96 96S292.9 320 240 320z"/></svg>