<svg xmlns="http://www.w3.org/2000/svg" viewBox="0 0 448 512"><!--! Font Awesome Free 6.0.0-beta2 by @fontawesome - https://fontawesome.com License - https://fontawesome.com/license/free (Icons: CC BY 4.0, Fonts: SIL OFL 1.1, Code: MIT License) --><path d="M384 31.1H64c-35.35 0-64 28.65-64 63.1v320c0 35.35 28.65 64 64 64h320c35.35 0 64-28.65 64-64v-320C448 60.65 419.3 31.1 384 31.1zM96 144c0-8.875 7.125-16 16-16h128c8.875 0 16 7.125 16 16v32C256 184.9 248.9 192 240 192h-128C103.1 192 96 184.9 96 176V144zM192 368C192 376.9 184.9 384 176 384h-64C103.1 384 96 376.9 96 368v-32C96 327.1 103.1 320 112 320h64C184.9 320 192 327.1 192 336V368zM352 272C352 280.9 344.9 288 336 288h-224C103.1 288 96 280.9 96 272v-32C96 231.1 103.1 224 112 224h224C344.9 224 352 231.1 352 240V272z"/></svg>