<svg xmlns="http://www.w3.org/2000/svg" viewBox="0 0 320 512"><!--! Font Awesome Free 6.0.0-beta2 by @fontawesome - https://fontawesome.com License - https://fontawesome.com/license/free (Icons: CC BY 4.0, Fonts: SIL OFL 1.1, Code: MIT License) --><path d="M320 448c0 17.67-14.31 32-32 32H32c-12.41 0-23.72-7.188-28.97-18.44c-5.281-11.23-3.562-24.52 4.375-34.05c28.25-33.86 43.78-76.55 43.78-120.2V288H32C14.31 288 0 273.7 0 256s14.31-32 32-32h19.19V157.3C51.19 88.22 108.3 32 178.6 32c13.69 0 27.25 2.156 40.25 6.422l79.09 25.89c16.81 5.484 25.97 23.56 20.47 40.36c-5.469 16.77-23.62 25.98-40.34 20.45l-79.13-25.89C192.3 97.09 185.5 96 178.6 96C143.6 96 115.2 123.5 115.2 157.3V224H224c17.69 0 32 14.33 32 32s-14.31 32-32 32H115.2v19.3c0 37.73-8.625 74.91-24.88 108.7H288C305.7 416 320 430.3 320 448z"/></svg>