<svg xmlns="http://www.w3.org/2000/svg" viewBox="0 0 640 512"><!--! Font Awesome Free 6.0.0-beta2 by @fontawesome - https://fontawesome.com License - https://fontawesome.com/license/free (Icons: CC BY 4.0, Fonts: SIL OFL 1.1, Code: MIT License) --><path d="M159.9 384V250.5c-11.42 3.56-23.38 5.521-35.56 5.521c-5.449 0-10.9-.3652-16.35-1.08C103.8 254.4 100 252.8 96 251.7l.0136 212.3C96.01 490.5 117.5 512 144 512h352c9.105 0 17.56-2.678 24.81-7.08l-154.3-120.9H159.9zM124.4 224c10.87 0 21.01-2.357 30.54-5.92L49.28 135.3C43.63 175.6 68.62 217.3 112.2 223.2C116.2 223.7 120.3 224 124.4 224zM630.8 469.1l-86.77-68.01l.0504-149.4c-4.146 1.082-8.088 2.709-12.4 3.281c-5.338 .6992-10.68 1.064-16.24 1.064c-12.13 0-24.05-1.953-35.45-5.504v100.4L300.1 210.6C308 206.3 314.4 201.1 319.9 195c15.9 17.59 39.11 28.97 65.17 28.97c26.17 0 49.29-11.38 65.19-28.97c15.98 17.59 39.13 28.97 65.19 28.97c4.141 0 8.112-.2734 12.09-.793c55.48-7.359 81.78-72.49 52.11-119.4l-57.32-90.68c-5.105-8.15-14.21-13.13-23.93-13.13H141.6c-9.717 0-18.83 4.98-23.94 13.13L94.92 49.08L38.81 5.109C34.41 1.672 29.19 0 24.03 0c-7.125 0-14.19 3.156-18.91 9.187c-8.187 10.44-6.37 25.53 4.068 33.7l591.1 463.1c10.5 8.203 25.57 6.328 33.69-4.078C643.1 492.4 641.2 477.3 630.8 469.1z"/></svg>