<svg xmlns="http://www.w3.org/2000/svg" viewBox="0 0 512 512"><!--! Font Awesome Free 6.0.0-beta2 by @fontawesome - https://fontawesome.com License - https://fontawesome.com/license/free (Icons: CC BY 4.0, Fonts: SIL OFL 1.1, Code: MIT License) --><path d="M192 304l12.5 99.97C206.5 419.1 220.1 432 236.2 432h39.5c16.14 0 29.75-12.02 31.75-28.03L320 304c17.67 0 32-14.33 32-32V224c0-35.35-28.65-64-64-64H224C188.7 160 160 188.7 160 224v48C160 289.7 174.3 304 192 304zM256 128c35.38 0 64-28.62 64-64s-28.62-64-64-64S192 28.62 192 64S220.6 128 256 128zM368 343.9v45.71c51.98 5.611 96 16.06 96 34.36c0 31.58-130.7 40-208 40c-77.25 0-208-8.424-208-40c0-19.71 50.69-29.58 96-34.49v-45.81C83.85 352.5 0 373.8 0 424C0 493.5 160.9 512 256 512s256-18.53 256-88C512 378.4 442.6 354.8 368 343.9z"/></svg>