<svg xmlns="http://www.w3.org/2000/svg" viewBox="0 0 640 512"><!--! Font Awesome Free 6.0.0-beta2 by @fontawesome - https://fontawesome.com License - https://fontawesome.com/license/free (Icons: CC BY 4.0, Fonts: SIL OFL 1.1, Code: MIT License) --><path d="M340 7.031c-11.75-9.375-28.25-9.375-40 0l-128 102.4C164.4 115.5 160 124.7 160 134.4v377.6l96-.0049v-92.62c0-31.87 21.75-61.37 53.25-66.5C349.4 346.4 384 377.1 384 416v95.99l96 .0049V134.4c0-9.75-4.375-18.88-12-25L340 7.031zM392 222.6c1.1 3.25-.25 7.208-4 7.208h-38.88L324 269.8c-1.875 3-6.125 3-8 0L290.9 229.8H252c-3.75 0-6-4.042-4-7.167l19.21-30.58L248 161.5C245.1 158.2 248.3 154.3 252 154.3h38.88L316 114.3c1.875-3 6.125-3 8 0l25.12 39.1h38.96c3.625 0 5.917 4.042 4.042 7.167l-19.34 30.58L392 222.6zM69.1 196.5L6.625 268.3C2.356 273.1 0 279.4 0 285.8v194.2c0 17.67 14.33 32 32 32L128 512V239.6L90.01 196.5C84.7 190.5 75.32 190.5 69.1 196.5zM633.3 268.2l-63.34-71.71c-5.31-6.011-14.69-6.011-19.99 .0059L512 239.6V512l96 .0146c17.67 0 32-14.33 32-32V285.9C640 279.3 637.7 273.1 633.3 268.2z"/></svg>