<svg xmlns="http://www.w3.org/2000/svg" viewBox="0 0 512 512"><!--! Font Awesome Free 6.0.0-beta2 by @fontawesome - https://fontawesome.com License - https://fontawesome.com/license/free (Icons: CC BY 4.0, Fonts: SIL OFL 1.1, Code: MIT License) --><path d="M448 32H64C28.65 32 0 60.65 0 96v320c0 35.35 28.65 64 64 64h384c35.35 0 64-28.65 64-64V96C512 60.65 483.3 32 448 32zM298.7 96v64H213.3V96H298.7zM298.7 224v64H213.3V224H298.7zM64 96h85.33v64H64V96zM64 224h85.33v64H64V224zM64 416v-64h85.33v64H64zM213.3 416v-64h85.33v64H213.3zM448 416h-85.33v-64H448V416zM448 288h-85.33V224H448V288zM448 160h-85.33V96H448V160z"/></svg>