<svg xmlns="http://www.w3.org/2000/svg" viewBox="0 0 576 512"><!--! Font Awesome Free 6.0.0-beta2 by @fontawesome - https://fontawesome.com License - https://fontawesome.com/license/free (Icons: CC BY 4.0, Fonts: SIL OFL 1.1, Code: MIT License) --><path d="M536.5 170.7l-135.7-131.9c-9.453-9.219-24.67-8.1-33.94 .5c-9.234 9.5-9.015 24.69 .5 33.94l135.5 131.7c16.28 16.25 25.23 37.87 25.23 60.87s-8.969 44.62-25.3 60.95l-111.7 112.4c-9.344 9.406-9.312 24.59 .0938 33.94c4.687 4.656 10.8 6.984 16.92 6.984c6.172 0 12.33-2.359 17.02-7.078l111.7-112.3C562 335.3 576 301.6 576 265.7S562 196.2 536.5 170.7zM463.6 225.6L286.4 48.41C277.4 39.38 259.6 32 246.8 32H59.1c-15.46 0-27.1 12.53-27.1 27.1v186.8c0 12.76 7.381 30.58 16.4 39.6l177.2 177.2c21.87 21.87 57.32 21.87 79.19 .002l158.8-158.8C485.5 282.9 485.5 247.5 463.6 225.6zM143.1 176c-17.67 0-31.1-14.32-31.1-31.1c0-17.68 14.33-31.1 31.1-31.1S175.1 126.3 175.1 144C175.1 161.7 161.7 176 143.1 176z"/></svg>