<svg xmlns="http://www.w3.org/2000/svg" viewBox="0 0 576 512"><!--! Font Awesome Free 6.0.0-beta2 by @fontawesome - https://fontawesome.com License - https://fontawesome.com/license/free (Icons: CC BY 4.0, Fonts: SIL OFL 1.1, Code: MIT License) --><path d="M224 320c-44.18 0-80-35.82-80-80S179.8 160 224 160s80 35.82 80 80S268.2 320 224 320zM512 0H64C28.65 0 0 28.65 0 64v352c0 35.35 28.65 64 64 64h16L96 512h64l16-32h224l16 32h64l16-32H512c35.35 0 64-28.65 64-64V64C576 28.65 547.3 0 512 0zM224 400c-88.37 0-160-71.63-160-160s71.63-160 160-160s160 71.63 160 160S312.4 400 224 400zM480 221.1V336c0 8.844-7.156 16-16 16S448 344.8 448 336V221.1C429.4 214.4 416 196.9 416 176C416 149.5 437.5 128 464 128S512 149.5 512 176C512 196.9 498.6 214.4 480 221.1z"/></svg>