<svg xmlns="http://www.w3.org/2000/svg" viewBox="0 0 512 512"><!--! Font Awesome Free 6.0.0-beta2 by @fontawesome - https://fontawesome.com License - https://fontawesome.com/license/free (Icons: CC BY 4.0, Fonts: SIL OFL 1.1, Code: MIT License) --><path d="M448 128H80C71.13 128 64 120.9 64 112S71.13 96 80 96H480V80C480 53.49 458.5 32 432 32H64C28.65 32 0 60.65 0 96v320c0 35.34 28.65 64 64 64h384c35.35 0 64-28.66 64-64V192C512 156.7 483.3 128 448 128zM416 336c-17.62 0-32-14.38-32-32s14.38-32 32-32s32 14.38 32 32S433.6 336 416 336z"/></svg>