<svg xmlns="http://www.w3.org/2000/svg" viewBox="0 0 512 512"><!--! Font Awesome Free 6.0.0-beta2 by @fontawesome - https://fontawesome.com License - https://fontawesome.com/license/free (Icons: CC BY 4.0, Fonts: SIL OFL 1.1, Code: MIT License) --><path d="M320 128H64c-35.35 0-64 28.65-64 64v256c0 35.34 28.65 64 64 64h256c35.35 0 64-28.66 64-64v-256C384 159.7 357.7 128 320 128zM320 256H64V192h256V256zM448 .0001H192c-35.35 0-64 28.65-64 63.1V80h64V64h256v256h-16v64l16 .0001c35.35 0 64-28.66 64-64v-256C512 28.65 483.3 .0001 448 .0001z"/></svg>