<svg xmlns="http://www.w3.org/2000/svg" viewBox="0 0 512 512"><!--! Font Awesome Free 6.0.0-beta2 by @fontawesome - https://fontawesome.com License - https://fontawesome.com/license/free (Icons: CC BY 4.0, Fonts: SIL OFL 1.1, Code: MIT License) --><path d="M480 240h-24.93l55.29-165.9c5.594-16.77-3.469-34.89-20.23-40.48c-16.84-5.656-34.91 3.484-40.48 20.23L387.6 240h-54.61l-45.94-183.8C283.5 42 270.7 32.01 256 32.01S228.5 42 224.1 56.23L179 240h-54.61L62.36 53.88c-5.578-16.75-23.64-25.89-40.48-20.23C5.109 39.23-3.953 57.36 1.641 74.13L56.93 240H32c-17.67 0-32 14.33-32 32s14.33 32 32 32l46.31 .0023l51.34 154.1c4.516 13.5 17.75 22.97 31.59 21.84c14.2-.5313 26.36-10.41 29.81-24.2L228.1 304h54.03l37.94 151.8c3.453 13.8 15.61 23.67 29.81 24.2C351.2 480 351.6 479.1 352.1 479.1c13.72 0 25.92-8.779 30.3-21.87l51.34-154.1L480 304c17.67 0 32-14.33 32-32S497.7 240 480 240zM155.6 333.6L145.7 304h17.28L155.6 333.6zM244.1 240L256 195.9L267 240H244.1zM356.4 333.6L348.1 304h17.28L356.4 333.6z"/></svg>